<?xml version="1.0" encoding="utf-8" standalone="no"?>
<!DOCTYPE svg PUBLIC "-//W3C//DTD SVG 1.1//EN"
  "http://www.w3.org/Graphics/SVG/1.1/DTD/svg11.dtd">
<svg xmlns:xlink="http://www.w3.org/1999/xlink" width="459.850312pt" height="294.382266pt" viewBox="0 0 459.850312 294.382266" xmlns="http://www.w3.org/2000/svg" version="1.1">
 <metadata>
  <rdf:RDF xmlns:dc="http://purl.org/dc/elements/1.1/" xmlns:cc="http://creativecommons.org/ns#" xmlns:rdf="http://www.w3.org/1999/02/22-rdf-syntax-ns#">
   <cc:Work>
    <dc:type rdf:resource="http://purl.org/dc/dcmitype/StillImage"/>
    <dc:date>2026-04-24T13:42:16.195138</dc:date>
    <dc:format>image/svg+xml</dc:format>
    <dc:creator>
     <cc:Agent>
      <dc:title>Matplotlib v3.10.8, https://matplotlib.org/</dc:title>
     </cc:Agent>
    </dc:creator>
   </cc:Work>
  </rdf:RDF>
 </metadata>
 <defs>
  <style type="text/css">*{stroke-linejoin: round; stroke-linecap: butt}</style>
 </defs>
 <g id="figure_1">
  <g id="patch_1">
   <path d="M 0 294.382266 
L 459.850312 294.382266 
L 459.850312 0 
L 0 0 
z
" style="fill: #ffffff"/>
  </g>
  <g id="axes_1">
   <g id="patch_2">
    <path d="M 45.060313 255.858203 
L 452.650312 255.858203 
L 452.650312 21.938203 
L 45.060313 21.938203 
z
" style="fill: #ffffff"/>
   </g>
   <g id="matplotlib.axis_1">
    <g id="xtick_1">
     <g id="line2d_1">
      <path d="M 45.060313 255.858203 
L 45.060313 21.938203 
" clip-path="url(#p2143351d21)" style="fill: none; stroke: #b0b0b0; stroke-opacity: 0.6; stroke-width: 0.4; stroke-linecap: square"/>
     </g>
     <g id="line2d_2">
      <defs>
       <path id="me35aab666e" d="M 0 0 
L 0 3.5 
" style="stroke: #000000; stroke-width: 0.8"/>
      </defs>
      <g>
       <use xlink:href="#me35aab666e" x="45.060313" y="255.858203" style="stroke: #000000; stroke-width: 0.8"/>
      </g>
     </g>
     <g id="text_1">
      <!-- 0.000 -->
      <g transform="translate(30.030547 270.836562) scale(0.105 -0.105)">
       <defs>
        <path id="DejaVuSans-30" d="M 2034 4250 
Q 1547 4250 1301 3770 
Q 1056 3291 1056 2328 
Q 1056 1369 1301 889 
Q 1547 409 2034 409 
Q 2525 409 2770 889 
Q 3016 1369 3016 2328 
Q 3016 3291 2770 3770 
Q 2525 4250 2034 4250 
z
M 2034 4750 
Q 2819 4750 3233 4129 
Q 3647 3509 3647 2328 
Q 3647 1150 3233 529 
Q 2819 -91 2034 -91 
Q 1250 -91 836 529 
Q 422 1150 422 2328 
Q 422 3509 836 4129 
Q 1250 4750 2034 4750 
z
" transform="scale(0.015625)"/>
        <path id="DejaVuSans-2e" d="M 684 794 
L 1344 794 
L 1344 0 
L 684 0 
L 684 794 
z
" transform="scale(0.015625)"/>
       </defs>
       <use xlink:href="#DejaVuSans-30"/>
       <use xlink:href="#DejaVuSans-2e" transform="translate(63.623047 0)"/>
       <use xlink:href="#DejaVuSans-30" transform="translate(95.410156 0)"/>
       <use xlink:href="#DejaVuSans-30" transform="translate(159.033203 0)"/>
       <use xlink:href="#DejaVuSans-30" transform="translate(222.65625 0)"/>
      </g>
     </g>
    </g>
    <g id="xtick_2">
     <g id="line2d_3">
      <path d="M 98.623199 255.858203 
L 98.623199 21.938203 
" clip-path="url(#p2143351d21)" style="fill: none; stroke: #b0b0b0; stroke-opacity: 0.6; stroke-width: 0.4; stroke-linecap: square"/>
     </g>
     <g id="line2d_4">
      <g>
       <use xlink:href="#me35aab666e" x="98.623199" y="255.858203" style="stroke: #000000; stroke-width: 0.8"/>
      </g>
     </g>
     <g id="text_2">
      <!-- 0.025 -->
      <g transform="translate(83.593434 270.836562) scale(0.105 -0.105)">
       <defs>
        <path id="DejaVuSans-32" d="M 1228 531 
L 3431 531 
L 3431 0 
L 469 0 
L 469 531 
Q 828 903 1448 1529 
Q 2069 2156 2228 2338 
Q 2531 2678 2651 2914 
Q 2772 3150 2772 3378 
Q 2772 3750 2511 3984 
Q 2250 4219 1831 4219 
Q 1534 4219 1204 4116 
Q 875 4013 500 3803 
L 500 4441 
Q 881 4594 1212 4672 
Q 1544 4750 1819 4750 
Q 2544 4750 2975 4387 
Q 3406 4025 3406 3419 
Q 3406 3131 3298 2873 
Q 3191 2616 2906 2266 
Q 2828 2175 2409 1742 
Q 1991 1309 1228 531 
z
" transform="scale(0.015625)"/>
        <path id="DejaVuSans-35" d="M 691 4666 
L 3169 4666 
L 3169 4134 
L 1269 4134 
L 1269 2991 
Q 1406 3038 1543 3061 
Q 1681 3084 1819 3084 
Q 2600 3084 3056 2656 
Q 3513 2228 3513 1497 
Q 3513 744 3044 326 
Q 2575 -91 1722 -91 
Q 1428 -91 1123 -41 
Q 819 9 494 109 
L 494 744 
Q 775 591 1075 516 
Q 1375 441 1709 441 
Q 2250 441 2565 725 
Q 2881 1009 2881 1497 
Q 2881 1984 2565 2268 
Q 2250 2553 1709 2553 
Q 1456 2553 1204 2497 
Q 953 2441 691 2322 
L 691 4666 
z
" transform="scale(0.015625)"/>
       </defs>
       <use xlink:href="#DejaVuSans-30"/>
       <use xlink:href="#DejaVuSans-2e" transform="translate(63.623047 0)"/>
       <use xlink:href="#DejaVuSans-30" transform="translate(95.410156 0)"/>
       <use xlink:href="#DejaVuSans-32" transform="translate(159.033203 0)"/>
       <use xlink:href="#DejaVuSans-35" transform="translate(222.65625 0)"/>
      </g>
     </g>
    </g>
    <g id="xtick_3">
     <g id="line2d_5">
      <path d="M 152.186086 255.858203 
L 152.186086 21.938203 
" clip-path="url(#p2143351d21)" style="fill: none; stroke: #b0b0b0; stroke-opacity: 0.6; stroke-width: 0.4; stroke-linecap: square"/>
     </g>
     <g id="line2d_6">
      <g>
       <use xlink:href="#me35aab666e" x="152.186086" y="255.858203" style="stroke: #000000; stroke-width: 0.8"/>
      </g>
     </g>
     <g id="text_3">
      <!-- 0.050 -->
      <g transform="translate(137.15632 270.836562) scale(0.105 -0.105)">
       <use xlink:href="#DejaVuSans-30"/>
       <use xlink:href="#DejaVuSans-2e" transform="translate(63.623047 0)"/>
       <use xlink:href="#DejaVuSans-30" transform="translate(95.410156 0)"/>
       <use xlink:href="#DejaVuSans-35" transform="translate(159.033203 0)"/>
       <use xlink:href="#DejaVuSans-30" transform="translate(222.65625 0)"/>
      </g>
     </g>
    </g>
    <g id="xtick_4">
     <g id="line2d_7">
      <path d="M 205.748973 255.858203 
L 205.748973 21.938203 
" clip-path="url(#p2143351d21)" style="fill: none; stroke: #b0b0b0; stroke-opacity: 0.6; stroke-width: 0.4; stroke-linecap: square"/>
     </g>
     <g id="line2d_8">
      <g>
       <use xlink:href="#me35aab666e" x="205.748973" y="255.858203" style="stroke: #000000; stroke-width: 0.8"/>
      </g>
     </g>
     <g id="text_4">
      <!-- 0.075 -->
      <g transform="translate(190.719207 270.836562) scale(0.105 -0.105)">
       <defs>
        <path id="DejaVuSans-37" d="M 525 4666 
L 3525 4666 
L 3525 4397 
L 1831 0 
L 1172 0 
L 2766 4134 
L 525 4134 
L 525 4666 
z
" transform="scale(0.015625)"/>
       </defs>
       <use xlink:href="#DejaVuSans-30"/>
       <use xlink:href="#DejaVuSans-2e" transform="translate(63.623047 0)"/>
       <use xlink:href="#DejaVuSans-30" transform="translate(95.410156 0)"/>
       <use xlink:href="#DejaVuSans-37" transform="translate(159.033203 0)"/>
       <use xlink:href="#DejaVuSans-35" transform="translate(222.65625 0)"/>
      </g>
     </g>
    </g>
    <g id="xtick_5">
     <g id="line2d_9">
      <path d="M 259.311859 255.858203 
L 259.311859 21.938203 
" clip-path="url(#p2143351d21)" style="fill: none; stroke: #b0b0b0; stroke-opacity: 0.6; stroke-width: 0.4; stroke-linecap: square"/>
     </g>
     <g id="line2d_10">
      <g>
       <use xlink:href="#me35aab666e" x="259.311859" y="255.858203" style="stroke: #000000; stroke-width: 0.8"/>
      </g>
     </g>
     <g id="text_5">
      <!-- 0.100 -->
      <g transform="translate(244.282094 270.836562) scale(0.105 -0.105)">
       <defs>
        <path id="DejaVuSans-31" d="M 794 531 
L 1825 531 
L 1825 4091 
L 703 3866 
L 703 4441 
L 1819 4666 
L 2450 4666 
L 2450 531 
L 3481 531 
L 3481 0 
L 794 0 
L 794 531 
z
" transform="scale(0.015625)"/>
       </defs>
       <use xlink:href="#DejaVuSans-30"/>
       <use xlink:href="#DejaVuSans-2e" transform="translate(63.623047 0)"/>
       <use xlink:href="#DejaVuSans-31" transform="translate(95.410156 0)"/>
       <use xlink:href="#DejaVuSans-30" transform="translate(159.033203 0)"/>
       <use xlink:href="#DejaVuSans-30" transform="translate(222.65625 0)"/>
      </g>
     </g>
    </g>
    <g id="xtick_6">
     <g id="line2d_11">
      <path d="M 312.874746 255.858203 
L 312.874746 21.938203 
" clip-path="url(#p2143351d21)" style="fill: none; stroke: #b0b0b0; stroke-opacity: 0.6; stroke-width: 0.4; stroke-linecap: square"/>
     </g>
     <g id="line2d_12">
      <g>
       <use xlink:href="#me35aab666e" x="312.874746" y="255.858203" style="stroke: #000000; stroke-width: 0.8"/>
      </g>
     </g>
     <g id="text_6">
      <!-- 0.125 -->
      <g transform="translate(297.84498 270.836562) scale(0.105 -0.105)">
       <use xlink:href="#DejaVuSans-30"/>
       <use xlink:href="#DejaVuSans-2e" transform="translate(63.623047 0)"/>
       <use xlink:href="#DejaVuSans-31" transform="translate(95.410156 0)"/>
       <use xlink:href="#DejaVuSans-32" transform="translate(159.033203 0)"/>
       <use xlink:href="#DejaVuSans-35" transform="translate(222.65625 0)"/>
      </g>
     </g>
    </g>
    <g id="xtick_7">
     <g id="line2d_13">
      <path d="M 366.437633 255.858203 
L 366.437633 21.938203 
" clip-path="url(#p2143351d21)" style="fill: none; stroke: #b0b0b0; stroke-opacity: 0.6; stroke-width: 0.4; stroke-linecap: square"/>
     </g>
     <g id="line2d_14">
      <g>
       <use xlink:href="#me35aab666e" x="366.437633" y="255.858203" style="stroke: #000000; stroke-width: 0.8"/>
      </g>
     </g>
     <g id="text_7">
      <!-- 0.150 -->
      <g transform="translate(351.407867 270.836562) scale(0.105 -0.105)">
       <use xlink:href="#DejaVuSans-30"/>
       <use xlink:href="#DejaVuSans-2e" transform="translate(63.623047 0)"/>
       <use xlink:href="#DejaVuSans-31" transform="translate(95.410156 0)"/>
       <use xlink:href="#DejaVuSans-35" transform="translate(159.033203 0)"/>
       <use xlink:href="#DejaVuSans-30" transform="translate(222.65625 0)"/>
      </g>
     </g>
    </g>
    <g id="xtick_8">
     <g id="line2d_15">
      <path d="M 420.000519 255.858203 
L 420.000519 21.938203 
" clip-path="url(#p2143351d21)" style="fill: none; stroke: #b0b0b0; stroke-opacity: 0.6; stroke-width: 0.4; stroke-linecap: square"/>
     </g>
     <g id="line2d_16">
      <g>
       <use xlink:href="#me35aab666e" x="420.000519" y="255.858203" style="stroke: #000000; stroke-width: 0.8"/>
      </g>
     </g>
     <g id="text_8">
      <!-- 0.175 -->
      <g transform="translate(404.970754 270.836562) scale(0.105 -0.105)">
       <use xlink:href="#DejaVuSans-30"/>
       <use xlink:href="#DejaVuSans-2e" transform="translate(63.623047 0)"/>
       <use xlink:href="#DejaVuSans-31" transform="translate(95.410156 0)"/>
       <use xlink:href="#DejaVuSans-37" transform="translate(159.033203 0)"/>
       <use xlink:href="#DejaVuSans-35" transform="translate(222.65625 0)"/>
      </g>
     </g>
    </g>
    <g id="text_9">
     <!-- Euclidean error (px) -->
     <g transform="translate(196.717891 284.998594) scale(0.105 -0.105)">
      <defs>
       <path id="DejaVuSans-45" d="M 628 4666 
L 3578 4666 
L 3578 4134 
L 1259 4134 
L 1259 2753 
L 3481 2753 
L 3481 2222 
L 1259 2222 
L 1259 531 
L 3634 531 
L 3634 0 
L 628 0 
L 628 4666 
z
" transform="scale(0.015625)"/>
       <path id="DejaVuSans-75" d="M 544 1381 
L 544 3500 
L 1119 3500 
L 1119 1403 
Q 1119 906 1312 657 
Q 1506 409 1894 409 
Q 2359 409 2629 706 
Q 2900 1003 2900 1516 
L 2900 3500 
L 3475 3500 
L 3475 0 
L 2900 0 
L 2900 538 
Q 2691 219 2414 64 
Q 2138 -91 1772 -91 
Q 1169 -91 856 284 
Q 544 659 544 1381 
z
M 1991 3584 
L 1991 3584 
z
" transform="scale(0.015625)"/>
       <path id="DejaVuSans-63" d="M 3122 3366 
L 3122 2828 
Q 2878 2963 2633 3030 
Q 2388 3097 2138 3097 
Q 1578 3097 1268 2742 
Q 959 2388 959 1747 
Q 959 1106 1268 751 
Q 1578 397 2138 397 
Q 2388 397 2633 464 
Q 2878 531 3122 666 
L 3122 134 
Q 2881 22 2623 -34 
Q 2366 -91 2075 -91 
Q 1284 -91 818 406 
Q 353 903 353 1747 
Q 353 2603 823 3093 
Q 1294 3584 2113 3584 
Q 2378 3584 2631 3529 
Q 2884 3475 3122 3366 
z
" transform="scale(0.015625)"/>
       <path id="DejaVuSans-6c" d="M 603 4863 
L 1178 4863 
L 1178 0 
L 603 0 
L 603 4863 
z
" transform="scale(0.015625)"/>
       <path id="DejaVuSans-69" d="M 603 3500 
L 1178 3500 
L 1178 0 
L 603 0 
L 603 3500 
z
M 603 4863 
L 1178 4863 
L 1178 4134 
L 603 4134 
L 603 4863 
z
" transform="scale(0.015625)"/>
       <path id="DejaVuSans-64" d="M 2906 2969 
L 2906 4863 
L 3481 4863 
L 3481 0 
L 2906 0 
L 2906 525 
Q 2725 213 2448 61 
Q 2172 -91 1784 -91 
Q 1150 -91 751 415 
Q 353 922 353 1747 
Q 353 2572 751 3078 
Q 1150 3584 1784 3584 
Q 2172 3584 2448 3432 
Q 2725 3281 2906 2969 
z
M 947 1747 
Q 947 1113 1208 752 
Q 1469 391 1925 391 
Q 2381 391 2643 752 
Q 2906 1113 2906 1747 
Q 2906 2381 2643 2742 
Q 2381 3103 1925 3103 
Q 1469 3103 1208 2742 
Q 947 2381 947 1747 
z
" transform="scale(0.015625)"/>
       <path id="DejaVuSans-65" d="M 3597 1894 
L 3597 1613 
L 953 1613 
Q 991 1019 1311 708 
Q 1631 397 2203 397 
Q 2534 397 2845 478 
Q 3156 559 3463 722 
L 3463 178 
Q 3153 47 2828 -22 
Q 2503 -91 2169 -91 
Q 1331 -91 842 396 
Q 353 884 353 1716 
Q 353 2575 817 3079 
Q 1281 3584 2069 3584 
Q 2775 3584 3186 3129 
Q 3597 2675 3597 1894 
z
M 3022 2063 
Q 3016 2534 2758 2815 
Q 2500 3097 2075 3097 
Q 1594 3097 1305 2825 
Q 1016 2553 972 2059 
L 3022 2063 
z
" transform="scale(0.015625)"/>
       <path id="DejaVuSans-61" d="M 2194 1759 
Q 1497 1759 1228 1600 
Q 959 1441 959 1056 
Q 959 750 1161 570 
Q 1363 391 1709 391 
Q 2188 391 2477 730 
Q 2766 1069 2766 1631 
L 2766 1759 
L 2194 1759 
z
M 3341 1997 
L 3341 0 
L 2766 0 
L 2766 531 
Q 2569 213 2275 61 
Q 1981 -91 1556 -91 
Q 1019 -91 701 211 
Q 384 513 384 1019 
Q 384 1609 779 1909 
Q 1175 2209 1959 2209 
L 2766 2209 
L 2766 2266 
Q 2766 2663 2505 2880 
Q 2244 3097 1772 3097 
Q 1472 3097 1187 3025 
Q 903 2953 641 2809 
L 641 3341 
Q 956 3463 1253 3523 
Q 1550 3584 1831 3584 
Q 2591 3584 2966 3190 
Q 3341 2797 3341 1997 
z
" transform="scale(0.015625)"/>
       <path id="DejaVuSans-6e" d="M 3513 2113 
L 3513 0 
L 2938 0 
L 2938 2094 
Q 2938 2591 2744 2837 
Q 2550 3084 2163 3084 
Q 1697 3084 1428 2787 
Q 1159 2491 1159 1978 
L 1159 0 
L 581 0 
L 581 3500 
L 1159 3500 
L 1159 2956 
Q 1366 3272 1645 3428 
Q 1925 3584 2291 3584 
Q 2894 3584 3203 3211 
Q 3513 2838 3513 2113 
z
" transform="scale(0.015625)"/>
       <path id="DejaVuSans-20" transform="scale(0.015625)"/>
       <path id="DejaVuSans-72" d="M 2631 2963 
Q 2534 3019 2420 3045 
Q 2306 3072 2169 3072 
Q 1681 3072 1420 2755 
Q 1159 2438 1159 1844 
L 1159 0 
L 581 0 
L 581 3500 
L 1159 3500 
L 1159 2956 
Q 1341 3275 1631 3429 
Q 1922 3584 2338 3584 
Q 2397 3584 2469 3576 
Q 2541 3569 2628 3553 
L 2631 2963 
z
" transform="scale(0.015625)"/>
       <path id="DejaVuSans-6f" d="M 1959 3097 
Q 1497 3097 1228 2736 
Q 959 2375 959 1747 
Q 959 1119 1226 758 
Q 1494 397 1959 397 
Q 2419 397 2687 759 
Q 2956 1122 2956 1747 
Q 2956 2369 2687 2733 
Q 2419 3097 1959 3097 
z
M 1959 3584 
Q 2709 3584 3137 3096 
Q 3566 2609 3566 1747 
Q 3566 888 3137 398 
Q 2709 -91 1959 -91 
Q 1206 -91 779 398 
Q 353 888 353 1747 
Q 353 2609 779 3096 
Q 1206 3584 1959 3584 
z
" transform="scale(0.015625)"/>
       <path id="DejaVuSans-28" d="M 1984 4856 
Q 1566 4138 1362 3434 
Q 1159 2731 1159 2009 
Q 1159 1288 1364 580 
Q 1569 -128 1984 -844 
L 1484 -844 
Q 1016 -109 783 600 
Q 550 1309 550 2009 
Q 550 2706 781 3412 
Q 1013 4119 1484 4856 
L 1984 4856 
z
" transform="scale(0.015625)"/>
       <path id="DejaVuSans-70" d="M 1159 525 
L 1159 -1331 
L 581 -1331 
L 581 3500 
L 1159 3500 
L 1159 2969 
Q 1341 3281 1617 3432 
Q 1894 3584 2278 3584 
Q 2916 3584 3314 3078 
Q 3713 2572 3713 1747 
Q 3713 922 3314 415 
Q 2916 -91 2278 -91 
Q 1894 -91 1617 61 
Q 1341 213 1159 525 
z
M 3116 1747 
Q 3116 2381 2855 2742 
Q 2594 3103 2138 3103 
Q 1681 3103 1420 2742 
Q 1159 2381 1159 1747 
Q 1159 1113 1420 752 
Q 1681 391 2138 391 
Q 2594 391 2855 752 
Q 3116 1113 3116 1747 
z
" transform="scale(0.015625)"/>
       <path id="DejaVuSans-78" d="M 3513 3500 
L 2247 1797 
L 3578 0 
L 2900 0 
L 1881 1375 
L 863 0 
L 184 0 
L 1544 1831 
L 300 3500 
L 978 3500 
L 1906 2253 
L 2834 3500 
L 3513 3500 
z
" transform="scale(0.015625)"/>
       <path id="DejaVuSans-29" d="M 513 4856 
L 1013 4856 
Q 1481 4119 1714 3412 
Q 1947 2706 1947 2009 
Q 1947 1309 1714 600 
Q 1481 -109 1013 -844 
L 513 -844 
Q 928 -128 1133 580 
Q 1338 1288 1338 2009 
Q 1338 2731 1133 3434 
Q 928 4138 513 4856 
z
" transform="scale(0.015625)"/>
      </defs>
      <use xlink:href="#DejaVuSans-45"/>
      <use xlink:href="#DejaVuSans-75" transform="translate(63.183594 0)"/>
      <use xlink:href="#DejaVuSans-63" transform="translate(126.5625 0)"/>
      <use xlink:href="#DejaVuSans-6c" transform="translate(181.542969 0)"/>
      <use xlink:href="#DejaVuSans-69" transform="translate(209.326172 0)"/>
      <use xlink:href="#DejaVuSans-64" transform="translate(237.109375 0)"/>
      <use xlink:href="#DejaVuSans-65" transform="translate(300.585938 0)"/>
      <use xlink:href="#DejaVuSans-61" transform="translate(362.109375 0)"/>
      <use xlink:href="#DejaVuSans-6e" transform="translate(423.388672 0)"/>
      <use xlink:href="#DejaVuSans-20" transform="translate(486.767578 0)"/>
      <use xlink:href="#DejaVuSans-65" transform="translate(518.554688 0)"/>
      <use xlink:href="#DejaVuSans-72" transform="translate(580.078125 0)"/>
      <use xlink:href="#DejaVuSans-72" transform="translate(619.441406 0)"/>
      <use xlink:href="#DejaVuSans-6f" transform="translate(658.304688 0)"/>
      <use xlink:href="#DejaVuSans-72" transform="translate(719.486328 0)"/>
      <use xlink:href="#DejaVuSans-20" transform="translate(760.599609 0)"/>
      <use xlink:href="#DejaVuSans-28" transform="translate(792.386719 0)"/>
      <use xlink:href="#DejaVuSans-70" transform="translate(831.400391 0)"/>
      <use xlink:href="#DejaVuSans-78" transform="translate(894.876953 0)"/>
      <use xlink:href="#DejaVuSans-29" transform="translate(954.056641 0)"/>
     </g>
    </g>
   </g>
   <g id="matplotlib.axis_2">
    <g id="ytick_1">
     <g id="line2d_17">
      <path d="M 45.060313 255.858203 
L 452.650312 255.858203 
" clip-path="url(#p2143351d21)" style="fill: none; stroke: #b0b0b0; stroke-opacity: 0.6; stroke-width: 0.4; stroke-linecap: square"/>
     </g>
     <g id="line2d_18">
      <defs>
       <path id="m74bbcf6053" d="M 0 0 
L -3.5 0 
" style="stroke: #000000; stroke-width: 0.8"/>
      </defs>
      <g>
       <use xlink:href="#m74bbcf6053" x="45.060313" y="255.858203" style="stroke: #000000; stroke-width: 0.8"/>
      </g>
     </g>
     <g id="text_10">
      <!-- 0.0 -->
      <g transform="translate(21.362031 259.847383) scale(0.105 -0.105)">
       <use xlink:href="#DejaVuSans-30"/>
       <use xlink:href="#DejaVuSans-2e" transform="translate(63.623047 0)"/>
       <use xlink:href="#DejaVuSans-30" transform="translate(95.410156 0)"/>
      </g>
     </g>
    </g>
    <g id="ytick_2">
     <g id="line2d_19">
      <path d="M 45.060313 209.074203 
L 452.650312 209.074203 
" clip-path="url(#p2143351d21)" style="fill: none; stroke: #b0b0b0; stroke-opacity: 0.6; stroke-width: 0.4; stroke-linecap: square"/>
     </g>
     <g id="line2d_20">
      <g>
       <use xlink:href="#m74bbcf6053" x="45.060313" y="209.074203" style="stroke: #000000; stroke-width: 0.8"/>
      </g>
     </g>
     <g id="text_11">
      <!-- 0.2 -->
      <g transform="translate(21.362031 213.063383) scale(0.105 -0.105)">
       <use xlink:href="#DejaVuSans-30"/>
       <use xlink:href="#DejaVuSans-2e" transform="translate(63.623047 0)"/>
       <use xlink:href="#DejaVuSans-32" transform="translate(95.410156 0)"/>
      </g>
     </g>
    </g>
    <g id="ytick_3">
     <g id="line2d_21">
      <path d="M 45.060313 162.290203 
L 452.650312 162.290203 
" clip-path="url(#p2143351d21)" style="fill: none; stroke: #b0b0b0; stroke-opacity: 0.6; stroke-width: 0.4; stroke-linecap: square"/>
     </g>
     <g id="line2d_22">
      <g>
       <use xlink:href="#m74bbcf6053" x="45.060313" y="162.290203" style="stroke: #000000; stroke-width: 0.8"/>
      </g>
     </g>
     <g id="text_12">
      <!-- 0.4 -->
      <g transform="translate(21.362031 166.279383) scale(0.105 -0.105)">
       <defs>
        <path id="DejaVuSans-34" d="M 2419 4116 
L 825 1625 
L 2419 1625 
L 2419 4116 
z
M 2253 4666 
L 3047 4666 
L 3047 1625 
L 3713 1625 
L 3713 1100 
L 3047 1100 
L 3047 0 
L 2419 0 
L 2419 1100 
L 313 1100 
L 313 1709 
L 2253 4666 
z
" transform="scale(0.015625)"/>
       </defs>
       <use xlink:href="#DejaVuSans-30"/>
       <use xlink:href="#DejaVuSans-2e" transform="translate(63.623047 0)"/>
       <use xlink:href="#DejaVuSans-34" transform="translate(95.410156 0)"/>
      </g>
     </g>
    </g>
    <g id="ytick_4">
     <g id="line2d_23">
      <path d="M 45.060313 115.506203 
L 452.650312 115.506203 
" clip-path="url(#p2143351d21)" style="fill: none; stroke: #b0b0b0; stroke-opacity: 0.6; stroke-width: 0.4; stroke-linecap: square"/>
     </g>
     <g id="line2d_24">
      <g>
       <use xlink:href="#m74bbcf6053" x="45.060313" y="115.506203" style="stroke: #000000; stroke-width: 0.8"/>
      </g>
     </g>
     <g id="text_13">
      <!-- 0.6 -->
      <g transform="translate(21.362031 119.495383) scale(0.105 -0.105)">
       <defs>
        <path id="DejaVuSans-36" d="M 2113 2584 
Q 1688 2584 1439 2293 
Q 1191 2003 1191 1497 
Q 1191 994 1439 701 
Q 1688 409 2113 409 
Q 2538 409 2786 701 
Q 3034 994 3034 1497 
Q 3034 2003 2786 2293 
Q 2538 2584 2113 2584 
z
M 3366 4563 
L 3366 3988 
Q 3128 4100 2886 4159 
Q 2644 4219 2406 4219 
Q 1781 4219 1451 3797 
Q 1122 3375 1075 2522 
Q 1259 2794 1537 2939 
Q 1816 3084 2150 3084 
Q 2853 3084 3261 2657 
Q 3669 2231 3669 1497 
Q 3669 778 3244 343 
Q 2819 -91 2113 -91 
Q 1303 -91 875 529 
Q 447 1150 447 2328 
Q 447 3434 972 4092 
Q 1497 4750 2381 4750 
Q 2619 4750 2861 4703 
Q 3103 4656 3366 4563 
z
" transform="scale(0.015625)"/>
       </defs>
       <use xlink:href="#DejaVuSans-30"/>
       <use xlink:href="#DejaVuSans-2e" transform="translate(63.623047 0)"/>
       <use xlink:href="#DejaVuSans-36" transform="translate(95.410156 0)"/>
      </g>
     </g>
    </g>
    <g id="ytick_5">
     <g id="line2d_25">
      <path d="M 45.060313 68.722203 
L 452.650312 68.722203 
" clip-path="url(#p2143351d21)" style="fill: none; stroke: #b0b0b0; stroke-opacity: 0.6; stroke-width: 0.4; stroke-linecap: square"/>
     </g>
     <g id="line2d_26">
      <g>
       <use xlink:href="#m74bbcf6053" x="45.060313" y="68.722203" style="stroke: #000000; stroke-width: 0.8"/>
      </g>
     </g>
     <g id="text_14">
      <!-- 0.8 -->
      <g transform="translate(21.362031 72.711383) scale(0.105 -0.105)">
       <defs>
        <path id="DejaVuSans-38" d="M 2034 2216 
Q 1584 2216 1326 1975 
Q 1069 1734 1069 1313 
Q 1069 891 1326 650 
Q 1584 409 2034 409 
Q 2484 409 2743 651 
Q 3003 894 3003 1313 
Q 3003 1734 2745 1975 
Q 2488 2216 2034 2216 
z
M 1403 2484 
Q 997 2584 770 2862 
Q 544 3141 544 3541 
Q 544 4100 942 4425 
Q 1341 4750 2034 4750 
Q 2731 4750 3128 4425 
Q 3525 4100 3525 3541 
Q 3525 3141 3298 2862 
Q 3072 2584 2669 2484 
Q 3125 2378 3379 2068 
Q 3634 1759 3634 1313 
Q 3634 634 3220 271 
Q 2806 -91 2034 -91 
Q 1263 -91 848 271 
Q 434 634 434 1313 
Q 434 1759 690 2068 
Q 947 2378 1403 2484 
z
M 1172 3481 
Q 1172 3119 1398 2916 
Q 1625 2713 2034 2713 
Q 2441 2713 2670 2916 
Q 2900 3119 2900 3481 
Q 2900 3844 2670 4047 
Q 2441 4250 2034 4250 
Q 1625 4250 1398 4047 
Q 1172 3844 1172 3481 
z
" transform="scale(0.015625)"/>
       </defs>
       <use xlink:href="#DejaVuSans-30"/>
       <use xlink:href="#DejaVuSans-2e" transform="translate(63.623047 0)"/>
       <use xlink:href="#DejaVuSans-38" transform="translate(95.410156 0)"/>
      </g>
     </g>
    </g>
    <g id="ytick_6">
     <g id="line2d_27">
      <path d="M 45.060313 21.938203 
L 452.650312 21.938203 
" clip-path="url(#p2143351d21)" style="fill: none; stroke: #b0b0b0; stroke-opacity: 0.6; stroke-width: 0.4; stroke-linecap: square"/>
     </g>
     <g id="line2d_28">
      <g>
       <use xlink:href="#m74bbcf6053" x="45.060313" y="21.938203" style="stroke: #000000; stroke-width: 0.8"/>
      </g>
     </g>
     <g id="text_15">
      <!-- 1.0 -->
      <g transform="translate(21.362031 25.927383) scale(0.105 -0.105)">
       <use xlink:href="#DejaVuSans-31"/>
       <use xlink:href="#DejaVuSans-2e" transform="translate(63.623047 0)"/>
       <use xlink:href="#DejaVuSans-30" transform="translate(95.410156 0)"/>
      </g>
     </g>
    </g>
    <g id="text_16">
     <!-- Empirical CDF -->
     <g transform="translate(15.178359 175.696602) rotate(-90) scale(0.105 -0.105)">
      <defs>
       <path id="DejaVuSans-6d" d="M 3328 2828 
Q 3544 3216 3844 3400 
Q 4144 3584 4550 3584 
Q 5097 3584 5394 3201 
Q 5691 2819 5691 2113 
L 5691 0 
L 5113 0 
L 5113 2094 
Q 5113 2597 4934 2840 
Q 4756 3084 4391 3084 
Q 3944 3084 3684 2787 
Q 3425 2491 3425 1978 
L 3425 0 
L 2847 0 
L 2847 2094 
Q 2847 2600 2669 2842 
Q 2491 3084 2119 3084 
Q 1678 3084 1418 2786 
Q 1159 2488 1159 1978 
L 1159 0 
L 581 0 
L 581 3500 
L 1159 3500 
L 1159 2956 
Q 1356 3278 1631 3431 
Q 1906 3584 2284 3584 
Q 2666 3584 2933 3390 
Q 3200 3197 3328 2828 
z
" transform="scale(0.015625)"/>
       <path id="DejaVuSans-43" d="M 4122 4306 
L 4122 3641 
Q 3803 3938 3442 4084 
Q 3081 4231 2675 4231 
Q 1875 4231 1450 3742 
Q 1025 3253 1025 2328 
Q 1025 1406 1450 917 
Q 1875 428 2675 428 
Q 3081 428 3442 575 
Q 3803 722 4122 1019 
L 4122 359 
Q 3791 134 3420 21 
Q 3050 -91 2638 -91 
Q 1578 -91 968 557 
Q 359 1206 359 2328 
Q 359 3453 968 4101 
Q 1578 4750 2638 4750 
Q 3056 4750 3426 4639 
Q 3797 4528 4122 4306 
z
" transform="scale(0.015625)"/>
       <path id="DejaVuSans-44" d="M 1259 4147 
L 1259 519 
L 2022 519 
Q 2988 519 3436 956 
Q 3884 1394 3884 2338 
Q 3884 3275 3436 3711 
Q 2988 4147 2022 4147 
L 1259 4147 
z
M 628 4666 
L 1925 4666 
Q 3281 4666 3915 4102 
Q 4550 3538 4550 2338 
Q 4550 1131 3912 565 
Q 3275 0 1925 0 
L 628 0 
L 628 4666 
z
" transform="scale(0.015625)"/>
       <path id="DejaVuSans-46" d="M 628 4666 
L 3309 4666 
L 3309 4134 
L 1259 4134 
L 1259 2759 
L 3109 2759 
L 3109 2228 
L 1259 2228 
L 1259 0 
L 628 0 
L 628 4666 
z
" transform="scale(0.015625)"/>
      </defs>
      <use xlink:href="#DejaVuSans-45"/>
      <use xlink:href="#DejaVuSans-6d" transform="translate(63.183594 0)"/>
      <use xlink:href="#DejaVuSans-70" transform="translate(160.595703 0)"/>
      <use xlink:href="#DejaVuSans-69" transform="translate(224.072266 0)"/>
      <use xlink:href="#DejaVuSans-72" transform="translate(251.855469 0)"/>
      <use xlink:href="#DejaVuSans-69" transform="translate(292.96875 0)"/>
      <use xlink:href="#DejaVuSans-63" transform="translate(320.751953 0)"/>
      <use xlink:href="#DejaVuSans-61" transform="translate(375.732422 0)"/>
      <use xlink:href="#DejaVuSans-6c" transform="translate(437.011719 0)"/>
      <use xlink:href="#DejaVuSans-20" transform="translate(464.794922 0)"/>
      <use xlink:href="#DejaVuSans-43" transform="translate(496.582031 0)"/>
      <use xlink:href="#DejaVuSans-44" transform="translate(566.40625 0)"/>
      <use xlink:href="#DejaVuSans-46" transform="translate(643.408203 0)"/>
     </g>
    </g>
   </g>
   <g id="line2d_29">
    <path d="M 45.060313 249.360425 
L 45.060313 242.862648 
L 82.648604 236.36487 
L 82.648604 229.867092 
L 82.648604 223.369314 
L 82.648604 216.871536 
L 188.139638 210.373759 
L 188.139638 203.875981 
L 188.14178 197.378203 
L 188.14178 190.880425 
L 193.442364 184.382648 
L 193.442364 177.88487 
L 193.442364 171.387092 
L 193.442364 164.889314 
L 221.721425 158.391536 
L 221.721425 151.893759 
L 221.721425 145.395981 
L 221.721425 138.898203 
L 264.805269 132.400425 
L 264.805269 125.902648 
L 264.805269 119.40487 
L 264.805269 112.907092 
L 264.805269 106.409314 
L 264.805269 99.911536 
L 264.809554 93.413759 
L 264.809554 86.915981 
L 266.395015 80.418203 
L 266.395015 73.920425 
L 271.303518 67.422648 
L 271.303518 60.92487 
L 271.303518 54.427092 
L 271.303518 47.929314 
L 307.692001 41.431536 
L 307.694144 34.933759 
L 307.694144 28.435981 
L 307.696286 21.938203 
" clip-path="url(#p2143351d21)" style="fill: none; stroke: #1f77b4; stroke-width: 1.5; stroke-linecap: square"/>
    <defs>
     <path id="m2240964e7e" d="M 0 2.25 
C 0.596707 2.25 1.169055 2.012926 1.59099 1.59099 
C 2.012926 1.169055 2.25 0.596707 2.25 0 
C 2.25 -0.596707 2.012926 -1.169055 1.59099 -1.59099 
C 1.169055 -2.012926 0.596707 -2.25 0 -2.25 
C -0.596707 -2.25 -1.169055 -2.012926 -1.59099 -1.59099 
C -2.012926 -1.169055 -2.25 -0.596707 -2.25 0 
C -2.25 0.596707 -2.012926 1.169055 -1.59099 1.59099 
C -1.169055 2.012926 -0.596707 2.25 0 2.25 
z
" style="stroke: #1f77b4"/>
    </defs>
    <g clip-path="url(#p2143351d21)">
     <use xlink:href="#m2240964e7e" x="45.060313" y="249.360425" style="fill: #1f77b4; stroke: #1f77b4"/>
     <use xlink:href="#m2240964e7e" x="45.060313" y="242.862648" style="fill: #1f77b4; stroke: #1f77b4"/>
     <use xlink:href="#m2240964e7e" x="82.648604" y="236.36487" style="fill: #1f77b4; stroke: #1f77b4"/>
     <use xlink:href="#m2240964e7e" x="82.648604" y="229.867092" style="fill: #1f77b4; stroke: #1f77b4"/>
     <use xlink:href="#m2240964e7e" x="82.648604" y="223.369314" style="fill: #1f77b4; stroke: #1f77b4"/>
     <use xlink:href="#m2240964e7e" x="82.648604" y="216.871536" style="fill: #1f77b4; stroke: #1f77b4"/>
     <use xlink:href="#m2240964e7e" x="188.139638" y="210.373759" style="fill: #1f77b4; stroke: #1f77b4"/>
     <use xlink:href="#m2240964e7e" x="188.139638" y="203.875981" style="fill: #1f77b4; stroke: #1f77b4"/>
     <use xlink:href="#m2240964e7e" x="188.14178" y="197.378203" style="fill: #1f77b4; stroke: #1f77b4"/>
     <use xlink:href="#m2240964e7e" x="188.14178" y="190.880425" style="fill: #1f77b4; stroke: #1f77b4"/>
     <use xlink:href="#m2240964e7e" x="193.442364" y="184.382648" style="fill: #1f77b4; stroke: #1f77b4"/>
     <use xlink:href="#m2240964e7e" x="193.442364" y="177.88487" style="fill: #1f77b4; stroke: #1f77b4"/>
     <use xlink:href="#m2240964e7e" x="193.442364" y="171.387092" style="fill: #1f77b4; stroke: #1f77b4"/>
     <use xlink:href="#m2240964e7e" x="193.442364" y="164.889314" style="fill: #1f77b4; stroke: #1f77b4"/>
     <use xlink:href="#m2240964e7e" x="221.721425" y="158.391536" style="fill: #1f77b4; stroke: #1f77b4"/>
     <use xlink:href="#m2240964e7e" x="221.721425" y="151.893759" style="fill: #1f77b4; stroke: #1f77b4"/>
     <use xlink:href="#m2240964e7e" x="221.721425" y="145.395981" style="fill: #1f77b4; stroke: #1f77b4"/>
     <use xlink:href="#m2240964e7e" x="221.721425" y="138.898203" style="fill: #1f77b4; stroke: #1f77b4"/>
     <use xlink:href="#m2240964e7e" x="264.805269" y="132.400425" style="fill: #1f77b4; stroke: #1f77b4"/>
     <use xlink:href="#m2240964e7e" x="264.805269" y="125.902648" style="fill: #1f77b4; stroke: #1f77b4"/>
     <use xlink:href="#m2240964e7e" x="264.805269" y="119.40487" style="fill: #1f77b4; stroke: #1f77b4"/>
     <use xlink:href="#m2240964e7e" x="264.805269" y="112.907092" style="fill: #1f77b4; stroke: #1f77b4"/>
     <use xlink:href="#m2240964e7e" x="264.805269" y="106.409314" style="fill: #1f77b4; stroke: #1f77b4"/>
     <use xlink:href="#m2240964e7e" x="264.805269" y="99.911536" style="fill: #1f77b4; stroke: #1f77b4"/>
     <use xlink:href="#m2240964e7e" x="264.809554" y="93.413759" style="fill: #1f77b4; stroke: #1f77b4"/>
     <use xlink:href="#m2240964e7e" x="264.809554" y="86.915981" style="fill: #1f77b4; stroke: #1f77b4"/>
     <use xlink:href="#m2240964e7e" x="266.395015" y="80.418203" style="fill: #1f77b4; stroke: #1f77b4"/>
     <use xlink:href="#m2240964e7e" x="266.395015" y="73.920425" style="fill: #1f77b4; stroke: #1f77b4"/>
     <use xlink:href="#m2240964e7e" x="271.303518" y="67.422648" style="fill: #1f77b4; stroke: #1f77b4"/>
     <use xlink:href="#m2240964e7e" x="271.303518" y="60.92487" style="fill: #1f77b4; stroke: #1f77b4"/>
     <use xlink:href="#m2240964e7e" x="271.303518" y="54.427092" style="fill: #1f77b4; stroke: #1f77b4"/>
     <use xlink:href="#m2240964e7e" x="271.303518" y="47.929314" style="fill: #1f77b4; stroke: #1f77b4"/>
     <use xlink:href="#m2240964e7e" x="307.692001" y="41.431536" style="fill: #1f77b4; stroke: #1f77b4"/>
     <use xlink:href="#m2240964e7e" x="307.694144" y="34.933759" style="fill: #1f77b4; stroke: #1f77b4"/>
     <use xlink:href="#m2240964e7e" x="307.694144" y="28.435981" style="fill: #1f77b4; stroke: #1f77b4"/>
     <use xlink:href="#m2240964e7e" x="307.696286" y="21.938203" style="fill: #1f77b4; stroke: #1f77b4"/>
    </g>
   </g>
   <g id="line2d_30">
    <path d="M 45.060313 249.360425 
L 59.877949 242.862648 
L 59.877949 236.36487 
L 59.877949 229.867092 
L 59.877949 223.369314 
L 88.219144 216.871536 
L 88.219144 210.373759 
L 88.219144 203.875981 
L 88.219144 197.378203 
L 136.721409 190.880425 
L 136.721409 184.382648 
L 136.721409 177.88487 
L 136.721409 171.387092 
L 143.204661 164.889314 
L 143.204661 158.391536 
L 143.204661 151.893759 
L 143.204661 145.395981 
L 143.204661 138.898203 
L 143.204661 132.400425 
L 143.204661 125.902648 
L 143.204661 119.40487 
L 176.936425 112.907092 
L 176.936425 106.409314 
L 176.936425 99.911536 
L 176.936425 93.413759 
L 273.59601 86.915981 
L 273.59601 80.418203 
L 291.944512 73.920425 
L 291.944512 67.422648 
L 291.944512 60.92487 
L 291.944512 54.427092 
L 297.043699 47.929314 
L 297.043699 41.431536 
L 297.043699 34.933759 
L 297.043699 28.435981 
L 398.776761 21.938203 
" clip-path="url(#p2143351d21)" style="fill: none; stroke: #ff7f0e; stroke-width: 1.5; stroke-linecap: square"/>
    <defs>
     <path id="m0f6fc6e675" d="M -2.25 2.25 
L 2.25 2.25 
L 2.25 -2.25 
L -2.25 -2.25 
z
" style="stroke: #ff7f0e; stroke-linejoin: miter"/>
    </defs>
    <g clip-path="url(#p2143351d21)">
     <use xlink:href="#m0f6fc6e675" x="45.060313" y="249.360425" style="fill: #ff7f0e; stroke: #ff7f0e; stroke-linejoin: miter"/>
     <use xlink:href="#m0f6fc6e675" x="59.877949" y="242.862648" style="fill: #ff7f0e; stroke: #ff7f0e; stroke-linejoin: miter"/>
     <use xlink:href="#m0f6fc6e675" x="59.877949" y="236.36487" style="fill: #ff7f0e; stroke: #ff7f0e; stroke-linejoin: miter"/>
     <use xlink:href="#m0f6fc6e675" x="59.877949" y="229.867092" style="fill: #ff7f0e; stroke: #ff7f0e; stroke-linejoin: miter"/>
     <use xlink:href="#m0f6fc6e675" x="59.877949" y="223.369314" style="fill: #ff7f0e; stroke: #ff7f0e; stroke-linejoin: miter"/>
     <use xlink:href="#m0f6fc6e675" x="88.219144" y="216.871536" style="fill: #ff7f0e; stroke: #ff7f0e; stroke-linejoin: miter"/>
     <use xlink:href="#m0f6fc6e675" x="88.219144" y="210.373759" style="fill: #ff7f0e; stroke: #ff7f0e; stroke-linejoin: miter"/>
     <use xlink:href="#m0f6fc6e675" x="88.219144" y="203.875981" style="fill: #ff7f0e; stroke: #ff7f0e; stroke-linejoin: miter"/>
     <use xlink:href="#m0f6fc6e675" x="88.219144" y="197.378203" style="fill: #ff7f0e; stroke: #ff7f0e; stroke-linejoin: miter"/>
     <use xlink:href="#m0f6fc6e675" x="136.721409" y="190.880425" style="fill: #ff7f0e; stroke: #ff7f0e; stroke-linejoin: miter"/>
     <use xlink:href="#m0f6fc6e675" x="136.721409" y="184.382648" style="fill: #ff7f0e; stroke: #ff7f0e; stroke-linejoin: miter"/>
     <use xlink:href="#m0f6fc6e675" x="136.721409" y="177.88487" style="fill: #ff7f0e; stroke: #ff7f0e; stroke-linejoin: miter"/>
     <use xlink:href="#m0f6fc6e675" x="136.721409" y="171.387092" style="fill: #ff7f0e; stroke: #ff7f0e; stroke-linejoin: miter"/>
     <use xlink:href="#m0f6fc6e675" x="143.204661" y="164.889314" style="fill: #ff7f0e; stroke: #ff7f0e; stroke-linejoin: miter"/>
     <use xlink:href="#m0f6fc6e675" x="143.204661" y="158.391536" style="fill: #ff7f0e; stroke: #ff7f0e; stroke-linejoin: miter"/>
     <use xlink:href="#m0f6fc6e675" x="143.204661" y="151.893759" style="fill: #ff7f0e; stroke: #ff7f0e; stroke-linejoin: miter"/>
     <use xlink:href="#m0f6fc6e675" x="143.204661" y="145.395981" style="fill: #ff7f0e; stroke: #ff7f0e; stroke-linejoin: miter"/>
     <use xlink:href="#m0f6fc6e675" x="143.204661" y="138.898203" style="fill: #ff7f0e; stroke: #ff7f0e; stroke-linejoin: miter"/>
     <use xlink:href="#m0f6fc6e675" x="143.204661" y="132.400425" style="fill: #ff7f0e; stroke: #ff7f0e; stroke-linejoin: miter"/>
     <use xlink:href="#m0f6fc6e675" x="143.204661" y="125.902648" style="fill: #ff7f0e; stroke: #ff7f0e; stroke-linejoin: miter"/>
     <use xlink:href="#m0f6fc6e675" x="143.204661" y="119.40487" style="fill: #ff7f0e; stroke: #ff7f0e; stroke-linejoin: miter"/>
     <use xlink:href="#m0f6fc6e675" x="176.936425" y="112.907092" style="fill: #ff7f0e; stroke: #ff7f0e; stroke-linejoin: miter"/>
     <use xlink:href="#m0f6fc6e675" x="176.936425" y="106.409314" style="fill: #ff7f0e; stroke: #ff7f0e; stroke-linejoin: miter"/>
     <use xlink:href="#m0f6fc6e675" x="176.936425" y="99.911536" style="fill: #ff7f0e; stroke: #ff7f0e; stroke-linejoin: miter"/>
     <use xlink:href="#m0f6fc6e675" x="176.936425" y="93.413759" style="fill: #ff7f0e; stroke: #ff7f0e; stroke-linejoin: miter"/>
     <use xlink:href="#m0f6fc6e675" x="273.59601" y="86.915981" style="fill: #ff7f0e; stroke: #ff7f0e; stroke-linejoin: miter"/>
     <use xlink:href="#m0f6fc6e675" x="273.59601" y="80.418203" style="fill: #ff7f0e; stroke: #ff7f0e; stroke-linejoin: miter"/>
     <use xlink:href="#m0f6fc6e675" x="291.944512" y="73.920425" style="fill: #ff7f0e; stroke: #ff7f0e; stroke-linejoin: miter"/>
     <use xlink:href="#m0f6fc6e675" x="291.944512" y="67.422648" style="fill: #ff7f0e; stroke: #ff7f0e; stroke-linejoin: miter"/>
     <use xlink:href="#m0f6fc6e675" x="291.944512" y="60.92487" style="fill: #ff7f0e; stroke: #ff7f0e; stroke-linejoin: miter"/>
     <use xlink:href="#m0f6fc6e675" x="291.944512" y="54.427092" style="fill: #ff7f0e; stroke: #ff7f0e; stroke-linejoin: miter"/>
     <use xlink:href="#m0f6fc6e675" x="297.043699" y="47.929314" style="fill: #ff7f0e; stroke: #ff7f0e; stroke-linejoin: miter"/>
     <use xlink:href="#m0f6fc6e675" x="297.043699" y="41.431536" style="fill: #ff7f0e; stroke: #ff7f0e; stroke-linejoin: miter"/>
     <use xlink:href="#m0f6fc6e675" x="297.043699" y="34.933759" style="fill: #ff7f0e; stroke: #ff7f0e; stroke-linejoin: miter"/>
     <use xlink:href="#m0f6fc6e675" x="297.043699" y="28.435981" style="fill: #ff7f0e; stroke: #ff7f0e; stroke-linejoin: miter"/>
     <use xlink:href="#m0f6fc6e675" x="398.776761" y="21.938203" style="fill: #ff7f0e; stroke: #ff7f0e; stroke-linejoin: miter"/>
    </g>
   </g>
   <g id="line2d_31">
    <path d="M 45.060313 249.360425 
L 223.600411 242.862648 
L 223.600411 236.36487 
L 223.600411 229.867092 
L 223.600411 223.369314 
L 223.604696 216.871536 
L 223.604696 210.373759 
L 223.604696 203.875981 
L 223.604696 197.378203 
L 223.656117 190.880425 
L 223.656117 184.382648 
L 223.658259 177.88487 
L 223.658259 171.387092 
L 281.971103 164.889314 
L 281.971103 158.391536 
L 281.971103 151.893759 
L 281.971103 145.395981 
L 281.971103 138.898203 
L 281.971103 132.400425 
L 281.971103 125.902648 
L 281.971103 119.40487 
L 295.126148 112.907092 
L 295.126148 106.409314 
L 295.126148 99.911536 
L 295.126148 93.413759 
L 339.609054 86.915981 
L 339.609054 80.418203 
L 339.609054 73.920425 
L 339.609054 67.422648 
L 359.489455 60.92487 
L 402.144795 54.427092 
L 402.144795 47.929314 
L 424.752619 41.431536 
L 424.752619 34.933759 
L 424.752619 28.435981 
L 424.752619 21.938203 
" clip-path="url(#p2143351d21)" style="fill: none; stroke: #2ca02c; stroke-width: 1.5; stroke-linecap: square"/>
    <defs>
     <path id="m12461e423c" d="M 0 -2.25 
L -2.25 2.25 
L 2.25 2.25 
z
" style="stroke: #2ca02c; stroke-linejoin: miter"/>
    </defs>
    <g clip-path="url(#p2143351d21)">
     <use xlink:href="#m12461e423c" x="45.060313" y="249.360425" style="fill: #2ca02c; stroke: #2ca02c; stroke-linejoin: miter"/>
     <use xlink:href="#m12461e423c" x="223.600411" y="242.862648" style="fill: #2ca02c; stroke: #2ca02c; stroke-linejoin: miter"/>
     <use xlink:href="#m12461e423c" x="223.600411" y="236.36487" style="fill: #2ca02c; stroke: #2ca02c; stroke-linejoin: miter"/>
     <use xlink:href="#m12461e423c" x="223.600411" y="229.867092" style="fill: #2ca02c; stroke: #2ca02c; stroke-linejoin: miter"/>
     <use xlink:href="#m12461e423c" x="223.600411" y="223.369314" style="fill: #2ca02c; stroke: #2ca02c; stroke-linejoin: miter"/>
     <use xlink:href="#m12461e423c" x="223.604696" y="216.871536" style="fill: #2ca02c; stroke: #2ca02c; stroke-linejoin: miter"/>
     <use xlink:href="#m12461e423c" x="223.604696" y="210.373759" style="fill: #2ca02c; stroke: #2ca02c; stroke-linejoin: miter"/>
     <use xlink:href="#m12461e423c" x="223.604696" y="203.875981" style="fill: #2ca02c; stroke: #2ca02c; stroke-linejoin: miter"/>
     <use xlink:href="#m12461e423c" x="223.604696" y="197.378203" style="fill: #2ca02c; stroke: #2ca02c; stroke-linejoin: miter"/>
     <use xlink:href="#m12461e423c" x="223.656117" y="190.880425" style="fill: #2ca02c; stroke: #2ca02c; stroke-linejoin: miter"/>
     <use xlink:href="#m12461e423c" x="223.656117" y="184.382648" style="fill: #2ca02c; stroke: #2ca02c; stroke-linejoin: miter"/>
     <use xlink:href="#m12461e423c" x="223.658259" y="177.88487" style="fill: #2ca02c; stroke: #2ca02c; stroke-linejoin: miter"/>
     <use xlink:href="#m12461e423c" x="223.658259" y="171.387092" style="fill: #2ca02c; stroke: #2ca02c; stroke-linejoin: miter"/>
     <use xlink:href="#m12461e423c" x="281.971103" y="164.889314" style="fill: #2ca02c; stroke: #2ca02c; stroke-linejoin: miter"/>
     <use xlink:href="#m12461e423c" x="281.971103" y="158.391536" style="fill: #2ca02c; stroke: #2ca02c; stroke-linejoin: miter"/>
     <use xlink:href="#m12461e423c" x="281.971103" y="151.893759" style="fill: #2ca02c; stroke: #2ca02c; stroke-linejoin: miter"/>
     <use xlink:href="#m12461e423c" x="281.971103" y="145.395981" style="fill: #2ca02c; stroke: #2ca02c; stroke-linejoin: miter"/>
     <use xlink:href="#m12461e423c" x="281.971103" y="138.898203" style="fill: #2ca02c; stroke: #2ca02c; stroke-linejoin: miter"/>
     <use xlink:href="#m12461e423c" x="281.971103" y="132.400425" style="fill: #2ca02c; stroke: #2ca02c; stroke-linejoin: miter"/>
     <use xlink:href="#m12461e423c" x="281.971103" y="125.902648" style="fill: #2ca02c; stroke: #2ca02c; stroke-linejoin: miter"/>
     <use xlink:href="#m12461e423c" x="281.971103" y="119.40487" style="fill: #2ca02c; stroke: #2ca02c; stroke-linejoin: miter"/>
     <use xlink:href="#m12461e423c" x="295.126148" y="112.907092" style="fill: #2ca02c; stroke: #2ca02c; stroke-linejoin: miter"/>
     <use xlink:href="#m12461e423c" x="295.126148" y="106.409314" style="fill: #2ca02c; stroke: #2ca02c; stroke-linejoin: miter"/>
     <use xlink:href="#m12461e423c" x="295.126148" y="99.911536" style="fill: #2ca02c; stroke: #2ca02c; stroke-linejoin: miter"/>
     <use xlink:href="#m12461e423c" x="295.126148" y="93.413759" style="fill: #2ca02c; stroke: #2ca02c; stroke-linejoin: miter"/>
     <use xlink:href="#m12461e423c" x="339.609054" y="86.915981" style="fill: #2ca02c; stroke: #2ca02c; stroke-linejoin: miter"/>
     <use xlink:href="#m12461e423c" x="339.609054" y="80.418203" style="fill: #2ca02c; stroke: #2ca02c; stroke-linejoin: miter"/>
     <use xlink:href="#m12461e423c" x="339.609054" y="73.920425" style="fill: #2ca02c; stroke: #2ca02c; stroke-linejoin: miter"/>
     <use xlink:href="#m12461e423c" x="339.609054" y="67.422648" style="fill: #2ca02c; stroke: #2ca02c; stroke-linejoin: miter"/>
     <use xlink:href="#m12461e423c" x="359.489455" y="60.92487" style="fill: #2ca02c; stroke: #2ca02c; stroke-linejoin: miter"/>
     <use xlink:href="#m12461e423c" x="402.144795" y="54.427092" style="fill: #2ca02c; stroke: #2ca02c; stroke-linejoin: miter"/>
     <use xlink:href="#m12461e423c" x="402.144795" y="47.929314" style="fill: #2ca02c; stroke: #2ca02c; stroke-linejoin: miter"/>
     <use xlink:href="#m12461e423c" x="424.752619" y="41.431536" style="fill: #2ca02c; stroke: #2ca02c; stroke-linejoin: miter"/>
     <use xlink:href="#m12461e423c" x="424.752619" y="34.933759" style="fill: #2ca02c; stroke: #2ca02c; stroke-linejoin: miter"/>
     <use xlink:href="#m12461e423c" x="424.752619" y="28.435981" style="fill: #2ca02c; stroke: #2ca02c; stroke-linejoin: miter"/>
     <use xlink:href="#m12461e423c" x="424.752619" y="21.938203" style="fill: #2ca02c; stroke: #2ca02c; stroke-linejoin: miter"/>
    </g>
   </g>
   <g id="line2d_32">
    <path d="M 45.060313 249.360425 
L 45.060313 242.862648 
L 45.060313 236.36487 
L 45.060313 229.867092 
L 70.444836 223.369314 
L 70.444836 216.871536 
L 70.444836 210.373759 
L 70.444836 203.875981 
L 80.587504 197.378203 
L 80.587504 190.880425 
L 80.587504 184.382648 
L 80.587504 177.88487 
L 94.940215 171.387092 
L 94.946643 164.889314 
L 94.946643 158.391536 
L 94.946643 151.893759 
L 195.889116 145.395981 
L 195.889116 138.898203 
L 195.889116 132.400425 
L 195.889116 125.902648 
L 198.571546 119.40487 
L 198.571546 112.907092 
L 198.571546 106.409314 
L 198.571546 99.911536 
L 198.573688 93.413759 
L 198.573688 86.915981 
L 198.573688 80.418203 
L 198.573688 73.920425 
L 203.589317 67.422648 
L 203.589317 60.92487 
L 203.589317 54.427092 
L 203.589317 47.929314 
L 265.752261 41.431536 
L 265.752261 34.933759 
L 265.752261 28.435981 
L 265.752261 21.938203 
" clip-path="url(#p2143351d21)" style="fill: none; stroke: #d62728; stroke-width: 1.5; stroke-linecap: square"/>
    <defs>
     <path id="md251e33ac1" d="M -0 3.181981 
L 3.181981 0 
L 0 -3.181981 
L -3.181981 -0 
z
" style="stroke: #d62728; stroke-linejoin: miter"/>
    </defs>
    <g clip-path="url(#p2143351d21)">
     <use xlink:href="#md251e33ac1" x="45.060313" y="249.360425" style="fill: #d62728; stroke: #d62728; stroke-linejoin: miter"/>
     <use xlink:href="#md251e33ac1" x="45.060313" y="242.862648" style="fill: #d62728; stroke: #d62728; stroke-linejoin: miter"/>
     <use xlink:href="#md251e33ac1" x="45.060313" y="236.36487" style="fill: #d62728; stroke: #d62728; stroke-linejoin: miter"/>
     <use xlink:href="#md251e33ac1" x="45.060313" y="229.867092" style="fill: #d62728; stroke: #d62728; stroke-linejoin: miter"/>
     <use xlink:href="#md251e33ac1" x="70.444836" y="223.369314" style="fill: #d62728; stroke: #d62728; stroke-linejoin: miter"/>
     <use xlink:href="#md251e33ac1" x="70.444836" y="216.871536" style="fill: #d62728; stroke: #d62728; stroke-linejoin: miter"/>
     <use xlink:href="#md251e33ac1" x="70.444836" y="210.373759" style="fill: #d62728; stroke: #d62728; stroke-linejoin: miter"/>
     <use xlink:href="#md251e33ac1" x="70.444836" y="203.875981" style="fill: #d62728; stroke: #d62728; stroke-linejoin: miter"/>
     <use xlink:href="#md251e33ac1" x="80.587504" y="197.378203" style="fill: #d62728; stroke: #d62728; stroke-linejoin: miter"/>
     <use xlink:href="#md251e33ac1" x="80.587504" y="190.880425" style="fill: #d62728; stroke: #d62728; stroke-linejoin: miter"/>
     <use xlink:href="#md251e33ac1" x="80.587504" y="184.382648" style="fill: #d62728; stroke: #d62728; stroke-linejoin: miter"/>
     <use xlink:href="#md251e33ac1" x="80.587504" y="177.88487" style="fill: #d62728; stroke: #d62728; stroke-linejoin: miter"/>
     <use xlink:href="#md251e33ac1" x="94.940215" y="171.387092" style="fill: #d62728; stroke: #d62728; stroke-linejoin: miter"/>
     <use xlink:href="#md251e33ac1" x="94.946643" y="164.889314" style="fill: #d62728; stroke: #d62728; stroke-linejoin: miter"/>
     <use xlink:href="#md251e33ac1" x="94.946643" y="158.391536" style="fill: #d62728; stroke: #d62728; stroke-linejoin: miter"/>
     <use xlink:href="#md251e33ac1" x="94.946643" y="151.893759" style="fill: #d62728; stroke: #d62728; stroke-linejoin: miter"/>
     <use xlink:href="#md251e33ac1" x="195.889116" y="145.395981" style="fill: #d62728; stroke: #d62728; stroke-linejoin: miter"/>
     <use xlink:href="#md251e33ac1" x="195.889116" y="138.898203" style="fill: #d62728; stroke: #d62728; stroke-linejoin: miter"/>
     <use xlink:href="#md251e33ac1" x="195.889116" y="132.400425" style="fill: #d62728; stroke: #d62728; stroke-linejoin: miter"/>
     <use xlink:href="#md251e33ac1" x="195.889116" y="125.902648" style="fill: #d62728; stroke: #d62728; stroke-linejoin: miter"/>
     <use xlink:href="#md251e33ac1" x="198.571546" y="119.40487" style="fill: #d62728; stroke: #d62728; stroke-linejoin: miter"/>
     <use xlink:href="#md251e33ac1" x="198.571546" y="112.907092" style="fill: #d62728; stroke: #d62728; stroke-linejoin: miter"/>
     <use xlink:href="#md251e33ac1" x="198.571546" y="106.409314" style="fill: #d62728; stroke: #d62728; stroke-linejoin: miter"/>
     <use xlink:href="#md251e33ac1" x="198.571546" y="99.911536" style="fill: #d62728; stroke: #d62728; stroke-linejoin: miter"/>
     <use xlink:href="#md251e33ac1" x="198.573688" y="93.413759" style="fill: #d62728; stroke: #d62728; stroke-linejoin: miter"/>
     <use xlink:href="#md251e33ac1" x="198.573688" y="86.915981" style="fill: #d62728; stroke: #d62728; stroke-linejoin: miter"/>
     <use xlink:href="#md251e33ac1" x="198.573688" y="80.418203" style="fill: #d62728; stroke: #d62728; stroke-linejoin: miter"/>
     <use xlink:href="#md251e33ac1" x="198.573688" y="73.920425" style="fill: #d62728; stroke: #d62728; stroke-linejoin: miter"/>
     <use xlink:href="#md251e33ac1" x="203.589317" y="67.422648" style="fill: #d62728; stroke: #d62728; stroke-linejoin: miter"/>
     <use xlink:href="#md251e33ac1" x="203.589317" y="60.92487" style="fill: #d62728; stroke: #d62728; stroke-linejoin: miter"/>
     <use xlink:href="#md251e33ac1" x="203.589317" y="54.427092" style="fill: #d62728; stroke: #d62728; stroke-linejoin: miter"/>
     <use xlink:href="#md251e33ac1" x="203.589317" y="47.929314" style="fill: #d62728; stroke: #d62728; stroke-linejoin: miter"/>
     <use xlink:href="#md251e33ac1" x="265.752261" y="41.431536" style="fill: #d62728; stroke: #d62728; stroke-linejoin: miter"/>
     <use xlink:href="#md251e33ac1" x="265.752261" y="34.933759" style="fill: #d62728; stroke: #d62728; stroke-linejoin: miter"/>
     <use xlink:href="#md251e33ac1" x="265.752261" y="28.435981" style="fill: #d62728; stroke: #d62728; stroke-linejoin: miter"/>
     <use xlink:href="#md251e33ac1" x="265.752261" y="21.938203" style="fill: #d62728; stroke: #d62728; stroke-linejoin: miter"/>
    </g>
   </g>
   <g id="line2d_33">
    <path d="M 85.768106 249.360425 
L 104.690803 242.862648 
L 105.509244 236.36487 
L 107.821018 229.867092 
L 148.920892 223.369314 
L 153.250916 216.871536 
L 157.934455 210.373759 
L 198.777227 203.875981 
L 202.653038 197.378203 
L 202.661608 190.880425 
L 210.22683 184.382648 
L 210.685328 177.88487 
L 211.345223 171.387092 
L 225.528675 164.889314 
L 234.555093 158.391536 
L 238.471611 151.893759 
L 242.244581 145.395981 
L 244.50065 138.898203 
L 248.550004 132.400425 
L 269.973016 125.902648 
L 270.849305 119.40487 
L 274.476584 112.907092 
L 280.552758 106.409314 
L 284.497129 99.911536 
L 286.909601 93.413759 
L 290.014106 86.915981 
L 293.219309 80.418203 
L 294.654794 73.920425 
L 312.109868 67.422648 
L 316.487027 60.92487 
L 319.218734 54.427092 
L 332.461622 47.929314 
L 348.42979 41.431536 
L 359.356619 34.933759 
L 373.876446 28.435981 
L 433.241265 21.938203 
" clip-path="url(#p2143351d21)" style="fill: none; stroke: #9467bd; stroke-width: 1.5; stroke-linecap: square"/>
    <defs>
     <path id="m9f2c540fc3" d="M -0.75 2.25 
L 0.75 2.25 
L 0.75 0.75 
L 2.25 0.75 
L 2.25 -0.75 
L 0.75 -0.75 
L 0.75 -2.25 
L -0.75 -2.25 
L -0.75 -0.75 
L -2.25 -0.75 
L -2.25 0.75 
L -0.75 0.75 
z
" style="stroke: #9467bd; stroke-linejoin: miter"/>
    </defs>
    <g clip-path="url(#p2143351d21)">
     <use xlink:href="#m9f2c540fc3" x="85.768106" y="249.360425" style="fill: #9467bd; stroke: #9467bd; stroke-linejoin: miter"/>
     <use xlink:href="#m9f2c540fc3" x="104.690803" y="242.862648" style="fill: #9467bd; stroke: #9467bd; stroke-linejoin: miter"/>
     <use xlink:href="#m9f2c540fc3" x="105.509244" y="236.36487" style="fill: #9467bd; stroke: #9467bd; stroke-linejoin: miter"/>
     <use xlink:href="#m9f2c540fc3" x="107.821018" y="229.867092" style="fill: #9467bd; stroke: #9467bd; stroke-linejoin: miter"/>
     <use xlink:href="#m9f2c540fc3" x="148.920892" y="223.369314" style="fill: #9467bd; stroke: #9467bd; stroke-linejoin: miter"/>
     <use xlink:href="#m9f2c540fc3" x="153.250916" y="216.871536" style="fill: #9467bd; stroke: #9467bd; stroke-linejoin: miter"/>
     <use xlink:href="#m9f2c540fc3" x="157.934455" y="210.373759" style="fill: #9467bd; stroke: #9467bd; stroke-linejoin: miter"/>
     <use xlink:href="#m9f2c540fc3" x="198.777227" y="203.875981" style="fill: #9467bd; stroke: #9467bd; stroke-linejoin: miter"/>
     <use xlink:href="#m9f2c540fc3" x="202.653038" y="197.378203" style="fill: #9467bd; stroke: #9467bd; stroke-linejoin: miter"/>
     <use xlink:href="#m9f2c540fc3" x="202.661608" y="190.880425" style="fill: #9467bd; stroke: #9467bd; stroke-linejoin: miter"/>
     <use xlink:href="#m9f2c540fc3" x="210.22683" y="184.382648" style="fill: #9467bd; stroke: #9467bd; stroke-linejoin: miter"/>
     <use xlink:href="#m9f2c540fc3" x="210.685328" y="177.88487" style="fill: #9467bd; stroke: #9467bd; stroke-linejoin: miter"/>
     <use xlink:href="#m9f2c540fc3" x="211.345223" y="171.387092" style="fill: #9467bd; stroke: #9467bd; stroke-linejoin: miter"/>
     <use xlink:href="#m9f2c540fc3" x="225.528675" y="164.889314" style="fill: #9467bd; stroke: #9467bd; stroke-linejoin: miter"/>
     <use xlink:href="#m9f2c540fc3" x="234.555093" y="158.391536" style="fill: #9467bd; stroke: #9467bd; stroke-linejoin: miter"/>
     <use xlink:href="#m9f2c540fc3" x="238.471611" y="151.893759" style="fill: #9467bd; stroke: #9467bd; stroke-linejoin: miter"/>
     <use xlink:href="#m9f2c540fc3" x="242.244581" y="145.395981" style="fill: #9467bd; stroke: #9467bd; stroke-linejoin: miter"/>
     <use xlink:href="#m9f2c540fc3" x="244.50065" y="138.898203" style="fill: #9467bd; stroke: #9467bd; stroke-linejoin: miter"/>
     <use xlink:href="#m9f2c540fc3" x="248.550004" y="132.400425" style="fill: #9467bd; stroke: #9467bd; stroke-linejoin: miter"/>
     <use xlink:href="#m9f2c540fc3" x="269.973016" y="125.902648" style="fill: #9467bd; stroke: #9467bd; stroke-linejoin: miter"/>
     <use xlink:href="#m9f2c540fc3" x="270.849305" y="119.40487" style="fill: #9467bd; stroke: #9467bd; stroke-linejoin: miter"/>
     <use xlink:href="#m9f2c540fc3" x="274.476584" y="112.907092" style="fill: #9467bd; stroke: #9467bd; stroke-linejoin: miter"/>
     <use xlink:href="#m9f2c540fc3" x="280.552758" y="106.409314" style="fill: #9467bd; stroke: #9467bd; stroke-linejoin: miter"/>
     <use xlink:href="#m9f2c540fc3" x="284.497129" y="99.911536" style="fill: #9467bd; stroke: #9467bd; stroke-linejoin: miter"/>
     <use xlink:href="#m9f2c540fc3" x="286.909601" y="93.413759" style="fill: #9467bd; stroke: #9467bd; stroke-linejoin: miter"/>
     <use xlink:href="#m9f2c540fc3" x="290.014106" y="86.915981" style="fill: #9467bd; stroke: #9467bd; stroke-linejoin: miter"/>
     <use xlink:href="#m9f2c540fc3" x="293.219309" y="80.418203" style="fill: #9467bd; stroke: #9467bd; stroke-linejoin: miter"/>
     <use xlink:href="#m9f2c540fc3" x="294.654794" y="73.920425" style="fill: #9467bd; stroke: #9467bd; stroke-linejoin: miter"/>
     <use xlink:href="#m9f2c540fc3" x="312.109868" y="67.422648" style="fill: #9467bd; stroke: #9467bd; stroke-linejoin: miter"/>
     <use xlink:href="#m9f2c540fc3" x="316.487027" y="60.92487" style="fill: #9467bd; stroke: #9467bd; stroke-linejoin: miter"/>
     <use xlink:href="#m9f2c540fc3" x="319.218734" y="54.427092" style="fill: #9467bd; stroke: #9467bd; stroke-linejoin: miter"/>
     <use xlink:href="#m9f2c540fc3" x="332.461622" y="47.929314" style="fill: #9467bd; stroke: #9467bd; stroke-linejoin: miter"/>
     <use xlink:href="#m9f2c540fc3" x="348.42979" y="41.431536" style="fill: #9467bd; stroke: #9467bd; stroke-linejoin: miter"/>
     <use xlink:href="#m9f2c540fc3" x="359.356619" y="34.933759" style="fill: #9467bd; stroke: #9467bd; stroke-linejoin: miter"/>
     <use xlink:href="#m9f2c540fc3" x="373.876446" y="28.435981" style="fill: #9467bd; stroke: #9467bd; stroke-linejoin: miter"/>
     <use xlink:href="#m9f2c540fc3" x="433.241265" y="21.938203" style="fill: #9467bd; stroke: #9467bd; stroke-linejoin: miter"/>
    </g>
   </g>
   <g id="line2d_34">
    <path d="M 45.199254 249.360425 
L 45.256466 242.862648 
L 45.256466 236.36487 
L 45.331936 229.867092 
L 102.376535 223.369314 
L 102.376535 216.871536 
L 102.376535 210.373759 
L 102.376535 203.875981 
L 102.389117 197.378203 
L 102.389117 190.880425 
L 102.38913 184.382648 
L 102.38913 177.88487 
L 126.094575 171.387092 
L 126.094575 164.889314 
L 126.094575 158.391536 
L 126.097465 151.893759 
L 243.862892 145.395981 
L 243.862892 138.898203 
L 243.862892 132.400425 
L 243.862892 125.902648 
L 243.862984 119.40487 
L 243.862984 112.907092 
L 243.862984 106.409314 
L 243.862984 99.911536 
L 252.337776 93.413759 
L 252.337776 86.915981 
L 252.337776 80.418203 
L 252.337776 73.920425 
L 252.337776 67.422648 
L 252.337776 60.92487 
L 252.3417 54.427092 
L 252.3417 47.929314 
L 325.903318 41.431536 
L 325.903318 34.933759 
L 325.903318 28.435981 
L 325.903318 21.938203 
" clip-path="url(#p2143351d21)" style="fill: none; stroke: #17becf; stroke-width: 1.5; stroke-linecap: square"/>
    <defs>
     <path id="m1f4508b73a" d="M -1.125 2.25 
L 0 1.125 
L 1.125 2.25 
L 2.25 1.125 
L 1.125 0 
L 2.25 -1.125 
L 1.125 -2.25 
L 0 -1.125 
L -1.125 -2.25 
L -2.25 -1.125 
L -1.125 0 
L -2.25 1.125 
z
" style="stroke: #17becf; stroke-linejoin: miter"/>
    </defs>
    <g clip-path="url(#p2143351d21)">
     <use xlink:href="#m1f4508b73a" x="45.199254" y="249.360425" style="fill: #17becf; stroke: #17becf; stroke-linejoin: miter"/>
     <use xlink:href="#m1f4508b73a" x="45.256466" y="242.862648" style="fill: #17becf; stroke: #17becf; stroke-linejoin: miter"/>
     <use xlink:href="#m1f4508b73a" x="45.256466" y="236.36487" style="fill: #17becf; stroke: #17becf; stroke-linejoin: miter"/>
     <use xlink:href="#m1f4508b73a" x="45.331936" y="229.867092" style="fill: #17becf; stroke: #17becf; stroke-linejoin: miter"/>
     <use xlink:href="#m1f4508b73a" x="102.376535" y="223.369314" style="fill: #17becf; stroke: #17becf; stroke-linejoin: miter"/>
     <use xlink:href="#m1f4508b73a" x="102.376535" y="216.871536" style="fill: #17becf; stroke: #17becf; stroke-linejoin: miter"/>
     <use xlink:href="#m1f4508b73a" x="102.376535" y="210.373759" style="fill: #17becf; stroke: #17becf; stroke-linejoin: miter"/>
     <use xlink:href="#m1f4508b73a" x="102.376535" y="203.875981" style="fill: #17becf; stroke: #17becf; stroke-linejoin: miter"/>
     <use xlink:href="#m1f4508b73a" x="102.389117" y="197.378203" style="fill: #17becf; stroke: #17becf; stroke-linejoin: miter"/>
     <use xlink:href="#m1f4508b73a" x="102.389117" y="190.880425" style="fill: #17becf; stroke: #17becf; stroke-linejoin: miter"/>
     <use xlink:href="#m1f4508b73a" x="102.38913" y="184.382648" style="fill: #17becf; stroke: #17becf; stroke-linejoin: miter"/>
     <use xlink:href="#m1f4508b73a" x="102.38913" y="177.88487" style="fill: #17becf; stroke: #17becf; stroke-linejoin: miter"/>
     <use xlink:href="#m1f4508b73a" x="126.094575" y="171.387092" style="fill: #17becf; stroke: #17becf; stroke-linejoin: miter"/>
     <use xlink:href="#m1f4508b73a" x="126.094575" y="164.889314" style="fill: #17becf; stroke: #17becf; stroke-linejoin: miter"/>
     <use xlink:href="#m1f4508b73a" x="126.094575" y="158.391536" style="fill: #17becf; stroke: #17becf; stroke-linejoin: miter"/>
     <use xlink:href="#m1f4508b73a" x="126.097465" y="151.893759" style="fill: #17becf; stroke: #17becf; stroke-linejoin: miter"/>
     <use xlink:href="#m1f4508b73a" x="243.862892" y="145.395981" style="fill: #17becf; stroke: #17becf; stroke-linejoin: miter"/>
     <use xlink:href="#m1f4508b73a" x="243.862892" y="138.898203" style="fill: #17becf; stroke: #17becf; stroke-linejoin: miter"/>
     <use xlink:href="#m1f4508b73a" x="243.862892" y="132.400425" style="fill: #17becf; stroke: #17becf; stroke-linejoin: miter"/>
     <use xlink:href="#m1f4508b73a" x="243.862892" y="125.902648" style="fill: #17becf; stroke: #17becf; stroke-linejoin: miter"/>
     <use xlink:href="#m1f4508b73a" x="243.862984" y="119.40487" style="fill: #17becf; stroke: #17becf; stroke-linejoin: miter"/>
     <use xlink:href="#m1f4508b73a" x="243.862984" y="112.907092" style="fill: #17becf; stroke: #17becf; stroke-linejoin: miter"/>
     <use xlink:href="#m1f4508b73a" x="243.862984" y="106.409314" style="fill: #17becf; stroke: #17becf; stroke-linejoin: miter"/>
     <use xlink:href="#m1f4508b73a" x="243.862984" y="99.911536" style="fill: #17becf; stroke: #17becf; stroke-linejoin: miter"/>
     <use xlink:href="#m1f4508b73a" x="252.337776" y="93.413759" style="fill: #17becf; stroke: #17becf; stroke-linejoin: miter"/>
     <use xlink:href="#m1f4508b73a" x="252.337776" y="86.915981" style="fill: #17becf; stroke: #17becf; stroke-linejoin: miter"/>
     <use xlink:href="#m1f4508b73a" x="252.337776" y="80.418203" style="fill: #17becf; stroke: #17becf; stroke-linejoin: miter"/>
     <use xlink:href="#m1f4508b73a" x="252.337776" y="73.920425" style="fill: #17becf; stroke: #17becf; stroke-linejoin: miter"/>
     <use xlink:href="#m1f4508b73a" x="252.337776" y="67.422648" style="fill: #17becf; stroke: #17becf; stroke-linejoin: miter"/>
     <use xlink:href="#m1f4508b73a" x="252.337776" y="60.92487" style="fill: #17becf; stroke: #17becf; stroke-linejoin: miter"/>
     <use xlink:href="#m1f4508b73a" x="252.3417" y="54.427092" style="fill: #17becf; stroke: #17becf; stroke-linejoin: miter"/>
     <use xlink:href="#m1f4508b73a" x="252.3417" y="47.929314" style="fill: #17becf; stroke: #17becf; stroke-linejoin: miter"/>
     <use xlink:href="#m1f4508b73a" x="325.903318" y="41.431536" style="fill: #17becf; stroke: #17becf; stroke-linejoin: miter"/>
     <use xlink:href="#m1f4508b73a" x="325.903318" y="34.933759" style="fill: #17becf; stroke: #17becf; stroke-linejoin: miter"/>
     <use xlink:href="#m1f4508b73a" x="325.903318" y="28.435981" style="fill: #17becf; stroke: #17becf; stroke-linejoin: miter"/>
     <use xlink:href="#m1f4508b73a" x="325.903318" y="21.938203" style="fill: #17becf; stroke: #17becf; stroke-linejoin: miter"/>
    </g>
   </g>
   <g id="patch_3">
    <path d="M 45.060313 255.858203 
L 45.060313 21.938203 
" style="fill: none; stroke: #000000; stroke-width: 0.8; stroke-linejoin: miter; stroke-linecap: square"/>
   </g>
   <g id="patch_4">
    <path d="M 45.060313 255.858203 
L 452.650312 255.858203 
" style="fill: none; stroke: #000000; stroke-width: 0.8; stroke-linejoin: miter; stroke-linecap: square"/>
   </g>
   <g id="text_17">
    <!-- Error CDF on clean cell=8 fixture -->
    <g transform="translate(154.261523 15.938203) scale(0.115 -0.115)">
     <defs>
      <path id="DejaVuSans-3d" d="M 678 2906 
L 4684 2906 
L 4684 2381 
L 678 2381 
L 678 2906 
z
M 678 1631 
L 4684 1631 
L 4684 1100 
L 678 1100 
L 678 1631 
z
" transform="scale(0.015625)"/>
      <path id="DejaVuSans-66" d="M 2375 4863 
L 2375 4384 
L 1825 4384 
Q 1516 4384 1395 4259 
Q 1275 4134 1275 3809 
L 1275 3500 
L 2222 3500 
L 2222 3053 
L 1275 3053 
L 1275 0 
L 697 0 
L 697 3053 
L 147 3053 
L 147 3500 
L 697 3500 
L 697 3744 
Q 697 4328 969 4595 
Q 1241 4863 1831 4863 
L 2375 4863 
z
" transform="scale(0.015625)"/>
      <path id="DejaVuSans-74" d="M 1172 4494 
L 1172 3500 
L 2356 3500 
L 2356 3053 
L 1172 3053 
L 1172 1153 
Q 1172 725 1289 603 
Q 1406 481 1766 481 
L 2356 481 
L 2356 0 
L 1766 0 
Q 1100 0 847 248 
Q 594 497 594 1153 
L 594 3053 
L 172 3053 
L 172 3500 
L 594 3500 
L 594 4494 
L 1172 4494 
z
" transform="scale(0.015625)"/>
     </defs>
     <use xlink:href="#DejaVuSans-45"/>
     <use xlink:href="#DejaVuSans-72" transform="translate(63.183594 0)"/>
     <use xlink:href="#DejaVuSans-72" transform="translate(102.546875 0)"/>
     <use xlink:href="#DejaVuSans-6f" transform="translate(141.410156 0)"/>
     <use xlink:href="#DejaVuSans-72" transform="translate(202.591797 0)"/>
     <use xlink:href="#DejaVuSans-20" transform="translate(243.705078 0)"/>
     <use xlink:href="#DejaVuSans-43" transform="translate(275.492188 0)"/>
     <use xlink:href="#DejaVuSans-44" transform="translate(345.316406 0)"/>
     <use xlink:href="#DejaVuSans-46" transform="translate(422.318359 0)"/>
     <use xlink:href="#DejaVuSans-20" transform="translate(479.837891 0)"/>
     <use xlink:href="#DejaVuSans-6f" transform="translate(511.625 0)"/>
     <use xlink:href="#DejaVuSans-6e" transform="translate(572.806641 0)"/>
     <use xlink:href="#DejaVuSans-20" transform="translate(636.185547 0)"/>
     <use xlink:href="#DejaVuSans-63" transform="translate(667.972656 0)"/>
     <use xlink:href="#DejaVuSans-6c" transform="translate(722.953125 0)"/>
     <use xlink:href="#DejaVuSans-65" transform="translate(750.736328 0)"/>
     <use xlink:href="#DejaVuSans-61" transform="translate(812.259766 0)"/>
     <use xlink:href="#DejaVuSans-6e" transform="translate(873.539062 0)"/>
     <use xlink:href="#DejaVuSans-20" transform="translate(936.917969 0)"/>
     <use xlink:href="#DejaVuSans-63" transform="translate(968.705078 0)"/>
     <use xlink:href="#DejaVuSans-65" transform="translate(1023.685547 0)"/>
     <use xlink:href="#DejaVuSans-6c" transform="translate(1085.208984 0)"/>
     <use xlink:href="#DejaVuSans-6c" transform="translate(1112.992188 0)"/>
     <use xlink:href="#DejaVuSans-3d" transform="translate(1140.775391 0)"/>
     <use xlink:href="#DejaVuSans-38" transform="translate(1224.564453 0)"/>
     <use xlink:href="#DejaVuSans-20" transform="translate(1288.1875 0)"/>
     <use xlink:href="#DejaVuSans-66" transform="translate(1319.974609 0)"/>
     <use xlink:href="#DejaVuSans-69" transform="translate(1355.179688 0)"/>
     <use xlink:href="#DejaVuSans-78" transform="translate(1382.962891 0)"/>
     <use xlink:href="#DejaVuSans-74" transform="translate(1442.142578 0)"/>
     <use xlink:href="#DejaVuSans-75" transform="translate(1481.351562 0)"/>
     <use xlink:href="#DejaVuSans-72" transform="translate(1544.730469 0)"/>
     <use xlink:href="#DejaVuSans-65" transform="translate(1583.59375 0)"/>
    </g>
   </g>
   <g id="legend_1">
    <g id="line2d_35">
     <path d="M 341.366719 176.684922 
L 350.366719 176.684922 
L 359.366719 176.684922 
" style="fill: none; stroke: #1f77b4; stroke-width: 1.5; stroke-linecap: square"/>
     <g>
      <use xlink:href="#m2240964e7e" x="350.366719" y="176.684922" style="fill: #1f77b4; stroke: #1f77b4"/>
     </g>
    </g>
    <g id="text_18">
     <!-- CenterOfMass -->
     <g transform="translate(366.566719 179.834922) scale(0.09 -0.09)">
      <defs>
       <path id="DejaVuSans-4f" d="M 2522 4238 
Q 1834 4238 1429 3725 
Q 1025 3213 1025 2328 
Q 1025 1447 1429 934 
Q 1834 422 2522 422 
Q 3209 422 3611 934 
Q 4013 1447 4013 2328 
Q 4013 3213 3611 3725 
Q 3209 4238 2522 4238 
z
M 2522 4750 
Q 3503 4750 4090 4092 
Q 4678 3434 4678 2328 
Q 4678 1225 4090 567 
Q 3503 -91 2522 -91 
Q 1538 -91 948 565 
Q 359 1222 359 2328 
Q 359 3434 948 4092 
Q 1538 4750 2522 4750 
z
" transform="scale(0.015625)"/>
       <path id="DejaVuSans-4d" d="M 628 4666 
L 1569 4666 
L 2759 1491 
L 3956 4666 
L 4897 4666 
L 4897 0 
L 4281 0 
L 4281 4097 
L 3078 897 
L 2444 897 
L 1241 4097 
L 1241 0 
L 628 0 
L 628 4666 
z
" transform="scale(0.015625)"/>
       <path id="DejaVuSans-73" d="M 2834 3397 
L 2834 2853 
Q 2591 2978 2328 3040 
Q 2066 3103 1784 3103 
Q 1356 3103 1142 2972 
Q 928 2841 928 2578 
Q 928 2378 1081 2264 
Q 1234 2150 1697 2047 
L 1894 2003 
Q 2506 1872 2764 1633 
Q 3022 1394 3022 966 
Q 3022 478 2636 193 
Q 2250 -91 1575 -91 
Q 1294 -91 989 -36 
Q 684 19 347 128 
L 347 722 
Q 666 556 975 473 
Q 1284 391 1588 391 
Q 1994 391 2212 530 
Q 2431 669 2431 922 
Q 2431 1156 2273 1281 
Q 2116 1406 1581 1522 
L 1381 1569 
Q 847 1681 609 1914 
Q 372 2147 372 2553 
Q 372 3047 722 3315 
Q 1072 3584 1716 3584 
Q 2034 3584 2315 3537 
Q 2597 3491 2834 3397 
z
" transform="scale(0.015625)"/>
      </defs>
      <use xlink:href="#DejaVuSans-43"/>
      <use xlink:href="#DejaVuSans-65" transform="translate(69.824219 0)"/>
      <use xlink:href="#DejaVuSans-6e" transform="translate(131.347656 0)"/>
      <use xlink:href="#DejaVuSans-74" transform="translate(194.726562 0)"/>
      <use xlink:href="#DejaVuSans-65" transform="translate(233.935547 0)"/>
      <use xlink:href="#DejaVuSans-72" transform="translate(295.458984 0)"/>
      <use xlink:href="#DejaVuSans-4f" transform="translate(336.572266 0)"/>
      <use xlink:href="#DejaVuSans-66" transform="translate(415.283203 0)"/>
      <use xlink:href="#DejaVuSans-4d" transform="translate(450.488281 0)"/>
      <use xlink:href="#DejaVuSans-61" transform="translate(536.767578 0)"/>
      <use xlink:href="#DejaVuSans-73" transform="translate(598.046875 0)"/>
      <use xlink:href="#DejaVuSans-73" transform="translate(650.146484 0)"/>
     </g>
    </g>
    <g id="line2d_36">
     <path d="M 341.366719 189.895234 
L 350.366719 189.895234 
L 359.366719 189.895234 
" style="fill: none; stroke: #ff7f0e; stroke-width: 1.5; stroke-linecap: square"/>
     <g>
      <use xlink:href="#m0f6fc6e675" x="350.366719" y="189.895234" style="fill: #ff7f0e; stroke: #ff7f0e; stroke-linejoin: miter"/>
     </g>
    </g>
    <g id="text_19">
     <!-- Förstner -->
     <g transform="translate(366.566719 193.045234) scale(0.09 -0.09)">
      <defs>
       <path id="DejaVuSans-f6" d="M 1959 3097 
Q 1497 3097 1228 2736 
Q 959 2375 959 1747 
Q 959 1119 1226 758 
Q 1494 397 1959 397 
Q 2419 397 2687 759 
Q 2956 1122 2956 1747 
Q 2956 2369 2687 2733 
Q 2419 3097 1959 3097 
z
M 1959 3584 
Q 2709 3584 3137 3096 
Q 3566 2609 3566 1747 
Q 3566 888 3137 398 
Q 2709 -91 1959 -91 
Q 1206 -91 779 398 
Q 353 888 353 1747 
Q 353 2609 779 3096 
Q 1206 3584 1959 3584 
z
M 2254 4850 
L 2888 4850 
L 2888 4219 
L 2254 4219 
L 2254 4850 
z
M 1032 4850 
L 1666 4850 
L 1666 4219 
L 1032 4219 
L 1032 4850 
z
" transform="scale(0.015625)"/>
      </defs>
      <use xlink:href="#DejaVuSans-46"/>
      <use xlink:href="#DejaVuSans-f6" transform="translate(53.894531 0)"/>
      <use xlink:href="#DejaVuSans-72" transform="translate(115.076172 0)"/>
      <use xlink:href="#DejaVuSans-73" transform="translate(156.189453 0)"/>
      <use xlink:href="#DejaVuSans-74" transform="translate(208.289062 0)"/>
      <use xlink:href="#DejaVuSans-6e" transform="translate(247.498047 0)"/>
      <use xlink:href="#DejaVuSans-65" transform="translate(310.876953 0)"/>
      <use xlink:href="#DejaVuSans-72" transform="translate(372.400391 0)"/>
     </g>
    </g>
    <g id="line2d_37">
     <path d="M 341.366719 203.105547 
L 350.366719 203.105547 
L 359.366719 203.105547 
" style="fill: none; stroke: #2ca02c; stroke-width: 1.5; stroke-linecap: square"/>
     <g>
      <use xlink:href="#m12461e423c" x="350.366719" y="203.105547" style="fill: #2ca02c; stroke: #2ca02c; stroke-linejoin: miter"/>
     </g>
    </g>
    <g id="text_20">
     <!-- SaddlePoint -->
     <g transform="translate(366.566719 206.255547) scale(0.09 -0.09)">
      <defs>
       <path id="DejaVuSans-53" d="M 3425 4513 
L 3425 3897 
Q 3066 4069 2747 4153 
Q 2428 4238 2131 4238 
Q 1616 4238 1336 4038 
Q 1056 3838 1056 3469 
Q 1056 3159 1242 3001 
Q 1428 2844 1947 2747 
L 2328 2669 
Q 3034 2534 3370 2195 
Q 3706 1856 3706 1288 
Q 3706 609 3251 259 
Q 2797 -91 1919 -91 
Q 1588 -91 1214 -16 
Q 841 59 441 206 
L 441 856 
Q 825 641 1194 531 
Q 1563 422 1919 422 
Q 2459 422 2753 634 
Q 3047 847 3047 1241 
Q 3047 1584 2836 1778 
Q 2625 1972 2144 2069 
L 1759 2144 
Q 1053 2284 737 2584 
Q 422 2884 422 3419 
Q 422 4038 858 4394 
Q 1294 4750 2059 4750 
Q 2388 4750 2728 4690 
Q 3069 4631 3425 4513 
z
" transform="scale(0.015625)"/>
       <path id="DejaVuSans-50" d="M 1259 4147 
L 1259 2394 
L 2053 2394 
Q 2494 2394 2734 2622 
Q 2975 2850 2975 3272 
Q 2975 3691 2734 3919 
Q 2494 4147 2053 4147 
L 1259 4147 
z
M 628 4666 
L 2053 4666 
Q 2838 4666 3239 4311 
Q 3641 3956 3641 3272 
Q 3641 2581 3239 2228 
Q 2838 1875 2053 1875 
L 1259 1875 
L 1259 0 
L 628 0 
L 628 4666 
z
" transform="scale(0.015625)"/>
      </defs>
      <use xlink:href="#DejaVuSans-53"/>
      <use xlink:href="#DejaVuSans-61" transform="translate(63.476562 0)"/>
      <use xlink:href="#DejaVuSans-64" transform="translate(124.755859 0)"/>
      <use xlink:href="#DejaVuSans-64" transform="translate(188.232422 0)"/>
      <use xlink:href="#DejaVuSans-6c" transform="translate(251.708984 0)"/>
      <use xlink:href="#DejaVuSans-65" transform="translate(279.492188 0)"/>
      <use xlink:href="#DejaVuSans-50" transform="translate(341.015625 0)"/>
      <use xlink:href="#DejaVuSans-6f" transform="translate(397.693359 0)"/>
      <use xlink:href="#DejaVuSans-69" transform="translate(458.875 0)"/>
      <use xlink:href="#DejaVuSans-6e" transform="translate(486.658203 0)"/>
      <use xlink:href="#DejaVuSans-74" transform="translate(550.037109 0)"/>
     </g>
    </g>
    <g id="line2d_38">
     <path d="M 341.366719 216.315859 
L 350.366719 216.315859 
L 359.366719 216.315859 
" style="fill: none; stroke: #d62728; stroke-width: 1.5; stroke-linecap: square"/>
     <g>
      <use xlink:href="#md251e33ac1" x="350.366719" y="216.315859" style="fill: #d62728; stroke: #d62728; stroke-linejoin: miter"/>
     </g>
    </g>
    <g id="text_21">
     <!-- RadonPeak -->
     <g transform="translate(366.566719 219.465859) scale(0.09 -0.09)">
      <defs>
       <path id="DejaVuSans-52" d="M 2841 2188 
Q 3044 2119 3236 1894 
Q 3428 1669 3622 1275 
L 4263 0 
L 3584 0 
L 2988 1197 
Q 2756 1666 2539 1819 
Q 2322 1972 1947 1972 
L 1259 1972 
L 1259 0 
L 628 0 
L 628 4666 
L 2053 4666 
Q 2853 4666 3247 4331 
Q 3641 3997 3641 3322 
Q 3641 2881 3436 2590 
Q 3231 2300 2841 2188 
z
M 1259 4147 
L 1259 2491 
L 2053 2491 
Q 2509 2491 2742 2702 
Q 2975 2913 2975 3322 
Q 2975 3731 2742 3939 
Q 2509 4147 2053 4147 
L 1259 4147 
z
" transform="scale(0.015625)"/>
       <path id="DejaVuSans-6b" d="M 581 4863 
L 1159 4863 
L 1159 1991 
L 2875 3500 
L 3609 3500 
L 1753 1863 
L 3688 0 
L 2938 0 
L 1159 1709 
L 1159 0 
L 581 0 
L 581 4863 
z
" transform="scale(0.015625)"/>
      </defs>
      <use xlink:href="#DejaVuSans-52"/>
      <use xlink:href="#DejaVuSans-61" transform="translate(67.232422 0)"/>
      <use xlink:href="#DejaVuSans-64" transform="translate(128.511719 0)"/>
      <use xlink:href="#DejaVuSans-6f" transform="translate(191.988281 0)"/>
      <use xlink:href="#DejaVuSans-6e" transform="translate(253.169922 0)"/>
      <use xlink:href="#DejaVuSans-50" transform="translate(316.548828 0)"/>
      <use xlink:href="#DejaVuSans-65" transform="translate(373.226562 0)"/>
      <use xlink:href="#DejaVuSans-61" transform="translate(434.75 0)"/>
      <use xlink:href="#DejaVuSans-6b" transform="translate(496.029297 0)"/>
     </g>
    </g>
    <g id="line2d_39">
     <path d="M 341.366719 229.526172 
L 350.366719 229.526172 
L 359.366719 229.526172 
" style="fill: none; stroke: #9467bd; stroke-width: 1.5; stroke-linecap: square"/>
     <g>
      <use xlink:href="#m9f2c540fc3" x="350.366719" y="229.526172" style="fill: #9467bd; stroke: #9467bd; stroke-linejoin: miter"/>
     </g>
    </g>
    <g id="text_22">
     <!-- ML (ONNX v4) -->
     <g transform="translate(366.566719 232.676172) scale(0.09 -0.09)">
      <defs>
       <path id="DejaVuSans-4c" d="M 628 4666 
L 1259 4666 
L 1259 531 
L 3531 531 
L 3531 0 
L 628 0 
L 628 4666 
z
" transform="scale(0.015625)"/>
       <path id="DejaVuSans-4e" d="M 628 4666 
L 1478 4666 
L 3547 763 
L 3547 4666 
L 4159 4666 
L 4159 0 
L 3309 0 
L 1241 3903 
L 1241 0 
L 628 0 
L 628 4666 
z
" transform="scale(0.015625)"/>
       <path id="DejaVuSans-58" d="M 403 4666 
L 1081 4666 
L 2241 2931 
L 3406 4666 
L 4084 4666 
L 2584 2425 
L 4184 0 
L 3506 0 
L 2194 1984 
L 872 0 
L 191 0 
L 1856 2491 
L 403 4666 
z
" transform="scale(0.015625)"/>
       <path id="DejaVuSans-76" d="M 191 3500 
L 800 3500 
L 1894 563 
L 2988 3500 
L 3597 3500 
L 2284 0 
L 1503 0 
L 191 3500 
z
" transform="scale(0.015625)"/>
      </defs>
      <use xlink:href="#DejaVuSans-4d"/>
      <use xlink:href="#DejaVuSans-4c" transform="translate(86.279297 0)"/>
      <use xlink:href="#DejaVuSans-20" transform="translate(141.992188 0)"/>
      <use xlink:href="#DejaVuSans-28" transform="translate(173.779297 0)"/>
      <use xlink:href="#DejaVuSans-4f" transform="translate(212.792969 0)"/>
      <use xlink:href="#DejaVuSans-4e" transform="translate(291.503906 0)"/>
      <use xlink:href="#DejaVuSans-4e" transform="translate(366.308594 0)"/>
      <use xlink:href="#DejaVuSans-58" transform="translate(441.113281 0)"/>
      <use xlink:href="#DejaVuSans-20" transform="translate(509.619141 0)"/>
      <use xlink:href="#DejaVuSans-76" transform="translate(541.40625 0)"/>
      <use xlink:href="#DejaVuSans-34" transform="translate(600.585938 0)"/>
      <use xlink:href="#DejaVuSans-29" transform="translate(664.208984 0)"/>
     </g>
    </g>
    <g id="line2d_40">
     <path d="M 341.366719 242.736484 
L 350.366719 242.736484 
L 359.366719 242.736484 
" style="fill: none; stroke: #17becf; stroke-width: 1.5; stroke-linecap: square"/>
     <g>
      <use xlink:href="#m1f4508b73a" x="350.366719" y="242.736484" style="fill: #17becf; stroke: #17becf; stroke-linejoin: miter"/>
     </g>
    </g>
    <g id="text_23">
     <!-- cv2.cornerSubPix -->
     <g transform="translate(366.566719 245.886484) scale(0.09 -0.09)">
      <defs>
       <path id="DejaVuSans-62" d="M 3116 1747 
Q 3116 2381 2855 2742 
Q 2594 3103 2138 3103 
Q 1681 3103 1420 2742 
Q 1159 2381 1159 1747 
Q 1159 1113 1420 752 
Q 1681 391 2138 391 
Q 2594 391 2855 752 
Q 3116 1113 3116 1747 
z
M 1159 2969 
Q 1341 3281 1617 3432 
Q 1894 3584 2278 3584 
Q 2916 3584 3314 3078 
Q 3713 2572 3713 1747 
Q 3713 922 3314 415 
Q 2916 -91 2278 -91 
Q 1894 -91 1617 61 
Q 1341 213 1159 525 
L 1159 0 
L 581 0 
L 581 4863 
L 1159 4863 
L 1159 2969 
z
" transform="scale(0.015625)"/>
      </defs>
      <use xlink:href="#DejaVuSans-63"/>
      <use xlink:href="#DejaVuSans-76" transform="translate(54.980469 0)"/>
      <use xlink:href="#DejaVuSans-32" transform="translate(114.160156 0)"/>
      <use xlink:href="#DejaVuSans-2e" transform="translate(177.783203 0)"/>
      <use xlink:href="#DejaVuSans-63" transform="translate(209.570312 0)"/>
      <use xlink:href="#DejaVuSans-6f" transform="translate(264.550781 0)"/>
      <use xlink:href="#DejaVuSans-72" transform="translate(325.732422 0)"/>
      <use xlink:href="#DejaVuSans-6e" transform="translate(365.095703 0)"/>
      <use xlink:href="#DejaVuSans-65" transform="translate(428.474609 0)"/>
      <use xlink:href="#DejaVuSans-72" transform="translate(489.998047 0)"/>
      <use xlink:href="#DejaVuSans-53" transform="translate(531.111328 0)"/>
      <use xlink:href="#DejaVuSans-75" transform="translate(594.587891 0)"/>
      <use xlink:href="#DejaVuSans-62" transform="translate(657.966797 0)"/>
      <use xlink:href="#DejaVuSans-50" transform="translate(721.443359 0)"/>
      <use xlink:href="#DejaVuSans-69" transform="translate(779.496094 0)"/>
      <use xlink:href="#DejaVuSans-78" transform="translate(807.279297 0)"/>
     </g>
    </g>
   </g>
  </g>
 </g>
 <defs>
  <clipPath id="p2143351d21">
   <rect x="45.060313" y="21.938203" width="407.59" height="233.92"/>
  </clipPath>
 </defs>
</svg>
